<?xml version="1.0" encoding="UTF-8"?>
<svg version="1.1" xmlns="http://www.w3.org/2000/svg" width="2126" height="1624">
<path d="M0 0 C0.86279823 0.00026688 1.72559647 0.00053375 2.6145401 0.00080872 C28.29336268 0.01076881 53.9189357 0.13302333 79.54223633 2.00390625 C82.24329315 2.20067025 84.9448503 2.38946147 87.64648438 2.578125 C175.13053964 8.77533668 261.36486936 23.85447537 345.0625 50.1875 C346.09509949 50.51107483 346.09509949 50.51107483 347.14855957 50.84118652 C383.90711094 62.37499936 419.69623541 76.77211963 454.0625 94.1875 C454.56590382 205.26936085 451.66213199 316.94609003 396.0625 621.1875 C395.82702454 621.91584045 395.59154907 622.64418091 395.34893799 623.39459229 C372.69596063 693.33191658 339.77487309 759.67744274 295.0625 818.1875 C294.5773291 818.82429687 294.0921582 819.46109375 293.59228516 820.1171875 C283.89155558 832.79735522 273.45898558 844.80659395 262.60180664 856.50463867 C261.42399004 857.79229765 260.25881638 859.09153163 259.09936523 860.39575195 C253.43293983 866.7661745 247.54113902 872.86010779 241.5 878.875 C240.60603516 879.77283203 239.71207031 880.67066406 238.79101562 881.59570312 C233.70929061 886.66999328 228.51408195 891.51571408 223.0625 896.1875 C221.45481627 897.64195517 219.85010285 899.09970895 218.25 900.5625 C213.98639983 904.40556298 209.61697727 908.08072734 205.15234375 911.6875 C202.90289335 913.50753572 200.66776208 915.33968882 198.44140625 917.1875 C166.954654 943.22729422 131.87353407 965.03818596 96.05615234 984.55566406 C93.54959743 985.92198384 91.04929578 987.29876193 88.55078125 988.6796875 C70.36783264 998.62637205 51.25120372 1006.87929152 32.25 1015.125 C31.05415283 1015.64416992 29.85830566 1016.16333984 28.6262207 1016.69824219 C25.11209358 1018.21199004 21.58796655 1019.70038185 18.0625 1021.1875 C16.72606474 1021.76967226 15.38963921 1022.35186684 14.05322266 1022.93408203 C12.71944235 1023.49988895 11.38530387 1024.0648524 10.05078125 1024.62890625 C8.85622314 1025.14267822 7.66166504 1025.6564502 6.4309082 1026.18579102 C0.89609745 1027.83175235 -3.21596824 1026.25689422 -8.41015625 1024.140625 C-9.46025879 1023.71434814 -10.51036133 1023.28807129 -11.59228516 1022.84887695 C-12.71683105 1022.38312256 -13.84137695 1021.91736816 -15 1021.4375 C-16.17868652 1020.9530542 -17.35737305 1020.4686084 -18.57177734 1019.96948242 C-32.16459139 1014.35218905 -45.56474724 1008.3069517 -58.9375 1002.1875 C-59.80117188 1001.79433594 -60.66484375 1001.40117188 -61.5546875 1000.99609375 C-88.34392688 988.77406703 -114.32517522 974.33337585 -138.9375 958.1875 C-139.87980469 957.57116699 -140.82210938 956.95483398 -141.79296875 956.31982422 C-164.26150746 941.58665402 -185.90220555 926.09495101 -206.29443359 908.59228516 C-207.95620437 907.17150818 -209.62733978 905.76247247 -211.30078125 904.35546875 C-224.0891839 893.56576645 -236.14727205 882.05439175 -248 870.25 C-249.17792114 869.07908813 -249.17792114 869.07908813 -250.37963867 867.88452148 C-254.54726643 863.70529343 -258.54791955 859.44079611 -262.39819336 854.9675293 C-264.43623287 852.61077338 -266.56277407 850.3410854 -268.6875 848.0625 C-273.43424642 842.85685363 -277.78596218 837.41455414 -282.09375 831.84375 C-284.45943425 828.78535158 -286.88126434 825.77740529 -289.32055664 822.77758789 C-310.7990483 796.2870967 -328.74813434 767.15283364 -344.9375 737.1875 C-345.38528809 736.36572266 -345.83307617 735.54394531 -346.29443359 734.69726562 C-361.03676002 707.53900006 -373.42296882 679.23128927 -383.9375 650.1875 C-384.21100281 649.43251221 -384.48450562 648.67752441 -384.76629639 647.8996582 C-416.49502355 560.01038125 -432.51587718 467.83981235 -449.9375 234.1875 C-449.9794046 233.02580292 -449.9794046 233.02580292 -450.02215576 231.84063721 C-451.66177623 185.980719 -452.15204292 140.0732805 -451.9375 94.1875 C-368.33104324 51.93634434 -276.48908129 27.6570709 -65.08169556 1.2875061 C-63.55155091 1.21613957 -62.02159712 1.14063114 -60.49179077 1.06234741 C-40.33090129 0.03771686 -20.18111088 -0.01400248 0 0 Z " fill="#3C4978" transform="translate(1061.9375,-0.1875)"/>
<path d="M0 0 C45.68176829 0 45.68176829 0 59.4375 0.75 C60.69092194 0.81435242 60.69092194 0.81435242 61.96966553 0.88000488 C154.27021713 5.65009227 246.2543604 19.72060565 344 50 C345.03259949 50.32357483 345.03259949 50.32357483 346.08605957 50.65368652 C382.84461094 62.18749936 418.63373541 76.58461963 453 94 C453.50340264 205.08160146 450.60078224 316.75892515 427.75 485.875 C427.5773764 486.89980469 427.40475281 487.92460937 427.22689819 488.98046875 C426.73567153 491.88133003 426.23676356 494.78074061 425.734375 497.6796875 C425.58875626 498.53698456 425.44313751 499.39428162 425.29310608 500.27755737 C425.15223068 501.07783356 425.01135529 501.87810974 424.86621094 502.70263672 C424.74663025 503.39154999 424.62704956 504.08046326 424.50384521 504.79025269 C423.86782535 507.57968712 422.90473564 510.28579308 422 513 C282.74 513 143.48 513 0 513 C0 484.95 0 456.9 0 428 C-2.64 427.67 -5.28 427.34 -8 427 C-17.99457889 424.88846925 -26.88667807 421.64622678 -36 417 C-37.06992188 416.47535156 -38.13984375 415.95070313 -39.2421875 415.41015625 C-70.25684045 399.60532711 -93.60868674 369.37477452 -104.5 336.625 C-105.39868906 333.76602942 -106.22120466 330.89379127 -107 328 C-107.20061035 327.25459961 -107.4012207 326.50919922 -107.60791016 325.74121094 C-111.12848374 312.34179884 -112.18673409 299.59057725 -112.18530273 285.74365234 C-112.18747632 283.40052756 -112.20565432 281.05788492 -112.22460938 278.71484375 C-112.27547698 265.43227986 -111.35095279 252.35554723 -107.75 239.5 C-107.53166504 238.70577637 -107.31333008 237.91155273 -107.08837891 237.09326172 C-95.73437009 196.86005426 -71.51053269 164.17330432 -35.125 143.3125 C-23.78153324 136.97727055 -12.69844383 133.17461096 0 130 C0 87.1 0 44.2 0 0 Z " fill="#748C91" transform="translate(1063,0)"/>
<path d="M0 0 C0 42.9 0 85.8 0 130 C-6.6 132.31 -13.2 134.62 -20 137 C-59.08091561 155.23776062 -86.40115469 183.05756464 -101.97900391 223.54443359 C-108.6078352 242.04000759 -111.18730715 260.69760354 -111.18530273 280.29077148 C-111.18747913 282.66473609 -111.2056577 285.03822719 -111.22460938 287.41210938 C-111.37048304 326.39570386 -96.71111674 362.69350939 -70 391 C-68.89785156 392.21623047 -68.89785156 392.21623047 -67.7734375 393.45703125 C-49.4729665 412.88980564 -25.43759845 422.12978497 0 428 C0 456.05 0 484.1 0 513 C-139.26 513 -278.52 513 -422 513 C-424.25096843 506.24709471 -424.25096843 506.24709471 -424.86621094 502.70263672 C-425.00708633 501.90236053 -425.14796173 501.10208435 -425.29310608 500.27755737 C-425.51153419 498.99161179 -425.51153419 498.99161179 -425.734375 497.6796875 C-425.89284409 496.76526886 -426.05131317 495.85085022 -426.21458435 494.90872192 C-426.73304543 491.89857476 -427.2426364 488.88703663 -427.75 485.875 C-427.92641022 484.8324707 -428.10282043 483.78994141 -428.28457642 482.71582031 C-446.54276323 374.42147975 -451.29841785 264.50759681 -453 94 C-369.39354324 51.74884434 -277.55158129 27.4695709 -64 1 C-61.95962997 0.88812008 -59.91926518 0.77614463 -57.87890625 0.6640625 C-38.54892851 -0.27638349 -19.41540489 0 0 0 Z " fill="#3C4978" transform="translate(1063,0)"/>
<path d="M0 0 C139.26 0 278.52 0 422 0 C422 169.62 422 339.24 422 514 C414.3470659 511.44902197 406.99915215 508.64823129 399.5625 505.5625 C398.93493805 505.30255249 398.3073761 505.04260498 397.66079712 504.77478027 C379.58133893 497.27097108 361.74155677 489.15611597 344.33349609 480.19775391 C342.57841471 479.29689292 340.82042783 478.40168901 339.06103516 477.50927734 C303.86174307 459.65395275 270.33919878 439.03258783 239 415 C237.43765625 413.82050781 237.43765625 413.82050781 235.84375 412.6171875 C228.57876517 407.11413529 221.56867912 401.36265789 214.65917969 395.42089844 C212.99139209 393.9926283 211.31351897 392.57709731 209.6328125 391.1640625 C196.84489102 380.37676136 184.78883241 368.8655019 172.9375 357.0625 C172.15221924 356.28189209 171.36693848 355.50128418 170.55786133 354.69702148 C166.39023357 350.51779343 162.38958045 346.25329611 158.53930664 341.7800293 C156.50126713 339.42327338 154.37472593 337.1535854 152.25 334.875 C147.50325358 329.66935363 143.15153782 324.22705414 138.84375 318.65625 C136.47806575 315.59785158 134.05623566 312.58990529 131.61694336 309.59008789 C110.1384517 283.0995967 92.18936566 253.96533364 76 224 C75.55221191 223.17822266 75.10442383 222.35644531 74.64306641 221.50976562 C59.90073998 194.35150006 47.51453118 166.04378927 37 137 C36.72649719 136.24501221 36.45299438 135.49002441 36.17120361 134.7121582 C0 34.51712309 0 34.51712309 0 0 Z " fill="#748D91" transform="translate(641,513)"/>
<path d="M0 0 C11.88 0 23.76 0 36 0 C40.33703854 8.67407708 44.59963921 17.31296931 48.625 26.125 C49.67675815 28.41551393 50.72885258 30.70587347 51.78125 32.99609375 C52.31492187 34.15866699 52.84859375 35.32124023 53.3984375 36.51904297 C55.95816214 42.08254205 58.54212443 47.6347211 61.125 53.1875 C66.31094465 64.34530536 71.47166249 75.51460391 76.625 86.6875 C90.68025148 117.15745717 104.78476981 147.60431668 119 178 C123.9140604 168.32265151 128.64726325 158.59300606 133.09786987 148.69390869 C134.37152958 145.86118886 135.65253638 143.03180635 136.93284607 140.2020874 C137.60683963 138.7122187 138.2804728 137.22218691 138.95375061 135.73199463 C142.59022387 127.68499092 146.26281877 119.65460891 149.9375 111.625 C150.60672891 110.16188328 151.27591824 108.69874846 151.94506836 107.2355957 C154.29963789 102.0874026 156.65500963 96.93957663 159.01037598 91.79174805 C161.36152409 86.65303327 163.71223812 81.51412017 166.0625 76.375 C166.39269135 75.65307465 166.72288269 74.93114929 167.06307983 74.18734741 C172.28833622 62.76156208 177.4892048 51.3248391 182.6819458 39.88424683 C188.73002916 26.56240942 194.85451366 13.27728531 201 0 C212.88 0 224.76 0 237 0 C237 77.88 237 155.76 237 236 C225.12 236 213.24 236 201 236 C200.67 174.29 200.34 112.58 200 49 C184.81076955 81.77575251 184.81076955 81.77575251 169.80859375 114.6328125 C165.58485475 123.94298617 161.29168019 133.2210036 157 142.5 C151.45863056 154.48150537 145.94870068 166.47606236 140.5 178.5 C134.75868192 191.16917523 128.95596775 203.80933619 123.125 216.4375 C122.5230481 217.74146729 122.5230481 217.74146729 121.90893555 219.07177734 C120.7757514 221.52595847 119.64196359 223.97985935 118.5078125 226.43359375 C118.16690582 227.17149643 117.82599915 227.90939911 117.47476196 228.66966248 C115.11834255 233.7633149 115.11834255 233.7633149 114 236 C111.03 236 108.06 236 105 236 C104.63986816 235.20456787 104.27973633 234.40913574 103.90869141 233.58959961 C96.37076022 216.95013062 88.78845252 200.33206843 81.125 183.75 C80.56117615 182.52994766 80.56117615 182.52994766 79.98596191 181.2852478 C79.22199008 179.63215396 78.45801302 177.97906254 77.69403076 176.32597351 C77.31546936 175.50683975 76.93690796 174.68770599 76.546875 173.84375 C76.168797 173.02570389 75.79071899 172.20765778 75.40118408 171.36482239 C71.38135208 162.66498465 67.37585612 153.9585781 63.375 145.25 C62.84907761 144.10534271 62.84907761 144.10534271 62.31253052 142.93756104 C56.88901429 131.13148171 51.48576462 119.31621325 46.09118652 107.49688721 C42.10270248 98.75957517 38.09600331 90.0309349 34.06640625 81.3125 C33.65340775 80.41880707 33.24040924 79.52511414 32.81489563 78.6043396 C30.79932501 74.24388926 28.78188474 69.88431526 26.76196289 65.52587891 C26.03138887 63.94695116 25.30083758 62.36801289 24.5703125 60.7890625 C24.23773941 60.07298828 23.90516632 59.35691406 23.56251526 58.61914062 C21.93885143 55.1070412 20.43840117 51.59600291 19 48 C18.67 110.04 18.34 172.08 18 236 C12.06 236 6.12 236 0 236 C0 158.12 0 80.24 0 0 Z " fill="#3B4877" transform="translate(1403,1179)"/>
<path d="M0 0 C136.05555556 0 136.05555556 0 167 26 C167.72832031 26.58265625 168.45664062 27.1653125 169.20703125 27.765625 C190.75712302 45.73032497 202.05070813 74.15429141 204.8190918 101.52856445 C206.9074755 130.05853508 202.86730635 155.95071475 189 181 C188.45601562 181.98742188 187.91203125 182.97484375 187.3515625 183.9921875 C182.63274261 191.9336161 176.4687783 198.47143207 170 205 C169.34386719 205.66902344 168.68773437 206.33804687 168.01171875 207.02734375 C157.68606377 216.75772816 144.35690463 223.58411133 131 228 C130.32275879 228.22526367 129.64551758 228.45052734 128.94775391 228.68261719 C87.86337564 241.9760163 41.45146233 236 0 236 C0 158.12 0 80.24 0 0 Z M36 20 C36 85.01 36 150.02 36 217 C54.19362239 220.41983407 54.19362239 220.41983407 72.375 221.5 C73.35774902 221.48791504 74.34049805 221.47583008 75.35302734 221.46337891 C93.76339755 220.97000371 111.50197124 215.63689208 126 204 C126.80824219 203.35546875 127.61648438 202.7109375 128.44921875 202.046875 C150.79691571 183.10220253 160.5610156 156.55447545 163 128 C164.88452783 99.48627458 159.18864958 68.66185223 140.1796875 46.3984375 C139.10074219 45.21121094 139.10074219 45.21121094 138 44 C137.17757812 43.08476563 136.35515625 42.16953125 135.5078125 41.2265625 C120.58498287 25.4386413 99.8346971 16.43434618 78.1484375 15.76171875 C75.89069416 15.73131588 73.63286604 15.70674318 71.375 15.6875 C70.29476562 15.65849609 69.21453125 15.62949219 68.1015625 15.59960938 C56.66948504 15.5140005 47.84212647 17.74435686 36 20 Z " fill="#3B4877" transform="translate(677,1179)"/>
<path d="M0 0 C0.87293701 0.08942871 1.74587402 0.17885742 2.64526367 0.27099609 C22.10987606 2.44258721 39.56921977 7.71625527 53.4375 22.25 C54.27474609 23.05824219 54.27474609 23.05824219 55.12890625 23.8828125 C64.8372393 33.97136747 68.84838583 47.88827453 68.75 61.5625 C68.74436035 62.39209229 68.7387207 63.22168457 68.73291016 64.07641602 C68.43863432 79.05097715 63.27789932 92.13500071 52.84375 103.00390625 C41.96779408 113.15597549 28.58812713 118.31283697 14.4375 122.25 C14.4375 125.57800471 14.76181235 126.04052263 16.7109375 128.55078125 C17.20070068 129.19063965 17.69046387 129.83049805 18.19506836 130.48974609 C18.7288208 131.17375488 19.26257324 131.85776367 19.8125 132.5625 C20.92708591 134.01853347 22.04034723 135.47558176 23.15234375 136.93359375 C23.71034668 137.66304199 24.26834961 138.39249023 24.84326172 139.14404297 C27.0788031 142.09714862 29.23536011 145.10201034 31.375 148.125 C32.18996698 149.27353486 33.00507452 150.42196999 33.8203125 151.5703125 C34.23958008 152.16102539 34.65884766 152.75173828 35.09082031 153.36035156 C39.28372554 159.24379726 43.53489762 165.08579865 47.76855469 170.93994141 C49.40268299 173.20180829 51.0338713 175.46576308 52.6640625 177.73046875 C58.85737936 186.32989016 65.10605645 194.88525995 71.40454102 203.40795898 C75.32242178 208.71664069 79.19132005 214.05683493 83.01000977 219.43725586 C86.30232812 224.07583425 89.65937878 228.66301772 93.0390625 233.23828125 C94.4375 235.25 94.4375 235.25 94.4375 236.25 C59.20983516 239.2491842 59.20983516 239.2491842 50.28271484 234.61083984 C45.66519743 230.45710321 43.03887151 225.32985193 40.56738281 219.69873047 C38.93963008 216.17099497 36.72751508 213.2572341 34.375 210.1875 C33.57367726 209.06958103 32.77684981 207.9484272 31.984375 206.82421875 C27.39759787 200.37474489 22.74416647 193.97292607 18.10644531 187.56005859 C16.47231701 185.29819171 14.8411287 183.03423692 13.2109375 180.76953125 C7.6619993 173.06468995 2.07917069 165.3872575 -3.5625 157.75 C-8.36282985 151.25036685 -13.13722498 144.7329022 -17.875 138.1875 C-18.43251953 137.41921875 -18.99003906 136.6509375 -19.56445312 135.859375 C-20.33112305 134.79783203 -20.33112305 134.79783203 -21.11328125 133.71484375 C-21.56356689 133.092146 -22.01385254 132.46944824 -22.4777832 131.82788086 C-23.5625 130.25 -23.5625 130.25 -24.5625 128.25 C-35.9475 127.755 -35.9475 127.755 -47.5625 127.25 C-47.5625 163.22 -47.5625 199.19 -47.5625 236.25 C-59.1125 236.25 -70.6625 236.25 -82.5625 236.25 C-82.5625 158.7 -82.5625 81.15 -82.5625 1.25 C-12.95856447 -1.32792354 -12.95856447 -1.32792354 0 0 Z M-47.5625 19.25 C-47.65775367 22.17194665 -47.68802736 25.07020329 -47.67602539 27.99243164 C-47.67617142 28.9094133 -47.67631744 29.82639496 -47.6764679 30.77116394 C-47.6757684 33.81751836 -47.66797428 36.86381245 -47.66015625 39.91015625 C-47.6582922 42.01622993 -47.65686824 44.12230403 -47.65586853 46.2283783 C-47.65204231 51.78342883 -47.64221114 57.33845341 -47.63116455 62.89349365 C-47.62095267 68.5572474 -47.61637139 74.22100533 -47.61132812 79.88476562 C-47.60058896 91.00652185 -47.5835113 102.12825877 -47.5625 113.25 C-44.24091235 113.28493252 -40.91937296 113.30573775 -37.59765625 113.32421875 C-36.66779907 113.3341687 -35.73794189 113.34411865 -34.77990723 113.35437012 C-16.94136724 113.42858344 1.02279372 108.60738945 14.50390625 96.375 C24.76976248 85.37745207 27.0445381 72.71798586 26.74609375 58.2109375 C26.22404898 46.71728789 21.25556986 36.15881965 13.18359375 27.9609375 C2.68644234 18.96337915 -8.58656322 16.05227288 -22.0625 16.0625 C-23.04049561 16.06258057 -24.01849121 16.06266113 -25.02612305 16.06274414 C-37.02684919 15.52402104 -37.02684919 15.52402104 -47.5625 19.25 Z " fill="#3B4877" transform="translate(537.5625,1178.75)"/>
<path d="M0 0 C60.72 0 121.44 0 184 0 C184 5.28 184 10.56 184 16 C137.14 16 90.28 16 42 16 C42 53.95 42 91.9 42 131 C81.27 131 120.54 131 161 131 C161 136.28 161 141.56 161 147 C121.73 147 82.46 147 42 147 C42.0825 165.81 42.165 184.62 42.25 204 C42.26579102 209.93097656 42.28158203 215.86195313 42.29785156 221.97265625 C42.33108706 227.30678103 42.33108706 227.30678103 42.36956787 232.64086914 C42.38414564 235.00965071 42.39095197 237.3784881 42.39154053 239.74731445 C42.39396265 243.3436336 42.42133732 246.93900223 42.45410156 250.53515625 C42.44907749 251.58373306 42.44405342 252.63230988 42.43887711 253.71266174 C42.53226035 260.27074012 43.72378876 264.31970131 47 270 C47 270.66 47 271.32 47 272 C54.42245319 274.95348156 60.82725937 275.44216322 68.77172852 275.43237305 C70.02149979 275.4425647 71.27127106 275.45275635 72.55891418 275.46325684 C75.95922505 275.48813977 79.35910508 275.5000877 82.75946927 275.50611091 C86.32294318 275.51553954 89.88629437 275.54174628 93.44969177 275.56611633 C100.18548449 275.60966224 106.92125322 275.63828209 113.65714353 275.66143972 C121.33079608 275.68855555 129.00432443 275.7324629 136.67788804 275.77772844 C152.45186359 275.87040397 168.22585835 275.94156704 184 276 C184 281.28 184 286.56 184 292 C123.28 292 62.56 292 0 292 C0 195.64 0 99.28 0 0 Z " fill="#EFEFF0" transform="translate(1248,139)"/>
<path d="M0 0 C11.88 0 23.76 0 36 0 C36 35.64 36 71.28 36 108 C70.98 108 105.96 108 142 108 C142 72.36 142 36.72 142 0 C153.88 0 165.76 0 178 0 C178 77.88 178 155.76 178 236 C166.12 236 154.24 236 142 236 C142 199.04 142 162.08 142 124 C107.02 124 72.04 124 36 124 C36 160.96 36 197.92 36 236 C24.12 236 12.24 236 0 236 C0 158.12 0 80.24 0 0 Z " fill="#3B4877" transform="translate(919,1179)"/>
<path d="M0 0 C1.26416748 0.00563965 2.52833496 0.0112793 3.83081055 0.01708984 C20.04333948 0.22631049 33.87843302 2.91083209 48.75 9.3125 C49.64976562 9.69148437 50.54953125 10.07046875 51.4765625 10.4609375 C73.70791769 20.67142962 90.52388407 40.32434923 103.75 60.3125 C104.47574219 61.37210938 105.20148438 62.43171875 105.94921875 63.5234375 C109.06829209 68.30368023 109.06829209 68.30368023 109.75 70.3125 C109.19140625 72.4453125 109.19140625 72.4453125 107.75 74.3125 C105.125 75.5625 105.125 75.5625 102.75 76.3125 C101.96689453 75.23935547 101.96689453 75.23935547 101.16796875 74.14453125 C81.70544578 47.79684254 60.70754472 26.06492482 27.75 18.3125 C26.82445312 18.08691406 25.89890625 17.86132812 24.9453125 17.62890625 C0.69703865 12.64873669 -26.32706719 17.13398089 -47.25 30.3125 C-72.77543576 47.57586967 -85.73227367 76.13393132 -92.5 105.3125 C-92.65114258 105.9504248 -92.80228516 106.58834961 -92.95800781 107.24560547 C-96.21658467 122.34318787 -96.59838797 137.69909676 -96.56567383 153.07958984 C-96.5625106 156.17711547 -96.58609216 159.27368488 -96.61132812 162.37109375 C-96.71439297 195.05563359 -89.51484265 228.27521526 -67.25 253.3125 C-66.27160156 254.43205078 -66.27160156 254.43205078 -65.2734375 255.57421875 C-51.87468055 269.9515366 -33.14504733 278.86266045 -14.25 283.3125 C-13.33605469 283.53808594 -12.42210937 283.76367188 -11.48046875 283.99609375 C15.07399315 289.50453005 44.92171593 284.41384129 67.59765625 269.6015625 C81.78570982 259.29896102 93.04450008 246.98729149 103.37329102 232.88598633 C104.16110962 231.82480591 104.16110962 231.82480591 104.96484375 230.7421875 C105.66275024 229.78675049 105.66275024 229.78675049 106.37475586 228.81201172 C107.75 227.3125 107.75 227.3125 110.75 226.3125 C113.4375 227.75 113.4375 227.75 115.75 229.3125 C114.31006077 234.57600669 111.90792224 238.47034705 108.8125 242.875 C108.32523438 243.57391357 107.83796875 244.27282715 107.3359375 244.99291992 C85.52742671 275.81706347 56.61684444 297.25331453 18.90405273 303.93188477 C0.00657606 306.77590119 -19.61066961 306.60877009 -38.25 302.3125 C-39.03987305 302.13557617 -39.82974609 301.95865234 -40.64355469 301.77636719 C-51.11435766 299.38292269 -60.68678818 296.30307069 -70.25 291.3125 C-71.31476563 290.78914063 -72.37953125 290.26578125 -73.4765625 289.7265625 C-104.50226892 273.95454468 -127.86307436 243.67408111 -138.75 210.9375 C-139.64868906 208.07852942 -140.47120466 205.20629127 -141.25 202.3125 C-141.45061035 201.56709961 -141.6512207 200.82169922 -141.85791016 200.05371094 C-145.37848374 186.65429884 -146.43673409 173.90307725 -146.43530273 160.05615234 C-146.43747632 157.71302756 -146.45565432 155.37038492 -146.47460938 153.02734375 C-146.52547698 139.74477986 -145.60095279 126.66804723 -142 113.8125 C-141.78166504 113.01827637 -141.56333008 112.22405273 -141.33837891 111.40576172 C-129.98546784 71.17644415 -105.76144353 38.48000167 -69.375 17.625 C-59.118542 11.91173676 -48.45899021 7.79941611 -37.1875 4.5625 C-36.16293701 4.26424316 -36.16293701 4.26424316 -35.11767578 3.95996094 C-23.59409849 0.82132718 -11.90053896 -0.05615354 0 0 Z " fill="#EFEFF0" transform="translate(1097.25,125.6875)"/>
<path d="M0 0 C14.19 0 28.38 0 43 0 C48.6189911 11.2379822 48.6189911 11.2379822 50.69921875 16.09765625 C51.17649414 17.20681396 51.65376953 18.31597168 52.14550781 19.45874023 C52.65436523 20.64798096 53.16322266 21.83722168 53.6875 23.0625 C54.84054173 25.74301033 55.99628116 28.42235384 57.15234375 31.1015625 C57.45778107 31.80991745 57.76321838 32.5182724 58.07791138 33.24809265 C61.92642311 42.16303795 65.84068764 51.04909794 69.75 59.9375 C75.70835033 73.49095574 81.64965154 87.05162857 87.5625 100.625 C87.91132233 101.42567902 88.26014465 102.22635803 88.61953735 103.05130005 C91.43138201 109.50602169 94.24179329 115.96136716 97.05212402 122.41674805 C99.51323509 128.06979541 101.97497264 133.72256944 104.4375 139.375 C104.78527496 140.17334259 105.13304993 140.97168518 105.49136353 141.79421997 C111.42978047 155.42373132 117.40356883 169.03754262 123.38638306 182.64761353 C130.31333546 198.40774134 137.17853418 214.19394081 144 230 C148.93088829 219.75653879 153.20143547 209.28683352 157.42745972 198.73858643 C159.52138393 193.51298059 161.62682149 188.29200991 163.73046875 183.0703125 C164.38339653 181.44837479 164.38339653 181.44837479 165.04951477 179.79367065 C169.64279398 168.38937849 174.28634502 157.00578483 178.9375 145.625 C179.77507796 143.57479366 180.612643 141.52458205 181.45019531 139.47436523 C183.13069077 135.36119263 184.81156782 131.2481762 186.49267578 127.13525391 C190.21124592 118.03704755 193.92595003 108.93726311 197.64031982 99.83734131 C198.46079012 97.82727222 199.28130578 95.81722164 200.10186768 93.80718994 C205.04004471 81.71060636 209.97386726 69.61225805 214.90234375 57.51171875 C215.39667908 56.2980513 215.8910144 55.08438385 216.40032959 53.8339386 C218.79394837 47.95697304 221.18711183 42.07982263 223.57958984 36.20239258 C225.67188063 31.06302774 227.76664027 25.92467607 229.86334229 20.78710938 C230.61033709 18.95546191 231.35641793 17.12344139 232.10150146 15.29101562 C233.09012514 12.8597388 234.08175332 10.42971055 235.07421875 8 C235.36069778 7.29327148 235.64717682 6.58654297 235.94233704 5.85839844 C237.8858591 1.1141409 237.8858591 1.1141409 239 0 C240.56172745 -0.08685603 242.12729344 -0.10702219 243.69140625 -0.09765625 C244.63564453 -0.09443359 245.57988281 -0.09121094 246.55273438 -0.08789062 C247.54595703 -0.07951172 248.53917969 -0.07113281 249.5625 -0.0625 C250.55958984 -0.05798828 251.55667969 -0.05347656 252.58398438 -0.04882812 C255.05605138 -0.03700005 257.52798665 -0.01967958 260 0 C258.12841592 5.81555037 256.07269241 11.50130487 253.734375 17.14453125 C253.42463242 17.89869324 253.11488983 18.65285522 252.79576111 19.42987061 C251.78351413 21.89199714 250.76686368 24.35227699 249.75 26.8125 C249.0295282 28.56169527 248.30923505 30.31096413 247.58911133 32.06030273 C242.3789773 44.70593306 237.12407225 57.33286519 231.85400391 69.95361328 C226.74745951 82.18580505 221.68150905 94.43454927 216.625 106.6875 C210.55281297 121.40047182 204.47338961 136.1103675 198.375 150.8125 C198.02743652 151.65047119 197.67987305 152.48844238 197.32177734 153.35180664 C194.53450772 160.07164855 191.74640746 166.79114574 188.95825195 173.51062012 C180.43857017 194.04347231 171.92707511 214.57967847 163.4375 235.125 C163.04340942 236.07848328 162.64931885 237.03196655 162.24328613 238.01434326 C157.90322997 248.51652973 153.57612008 259.02381183 149.27734375 269.54296875 C148.90220139 270.46029785 148.52705902 271.37762695 148.14054871 272.32275391 C146.36056026 276.67561013 144.58305083 281.02944385 142.81030273 285.38525391 C142.18353047 286.91963699 141.55666441 288.45398177 140.9296875 289.98828125 C140.64524277 290.69002975 140.36079803 291.39177826 140.06773376 292.11479187 C138.11352251 296.88647749 138.11352251 296.88647749 137 298 C134.32941149 298.14115161 131.67567762 298.04247107 129 298 C124.80810882 289.83104518 120.98218795 281.56672765 117.375 273.125 C116.53133795 271.16290946 115.68628505 269.20142113 114.8412323 267.2399292 C114.22772986 265.81566043 113.61463215 264.39121726 113.00190735 262.96661377 C109.26174273 254.27335103 105.48368135 245.59658188 101.70758057 236.91888428 C99.98976152 232.97101266 98.27285105 229.02274615 96.5559082 225.07449341 C95.24162649 222.05222728 93.92722065 219.03001515 92.61279297 216.0078125 C88.82210683 207.29182506 85.03255646 198.57534382 81.24295044 189.85888672 C79.16201634 185.07256968 77.08100411 180.2862866 75 175.5 C74.16666629 173.5833335 73.33333296 171.66666683 72.5 169.75 C72.0875 168.80125 71.675 167.8525 71.25 166.875 C70 164 68.75 161.125 67.5 158.25 C67.08751511 157.30128525 66.67503021 156.3525705 66.25004578 155.37510681 C65.41655837 153.45808475 64.58307245 151.54106205 63.74958801 149.6240387 C61.66862423 144.83780422 59.58763474 140.05158092 57.5065918 135.26538086 C53.72831853 126.57564358 49.95024422 117.88582004 46.17311096 109.19558716 C44.05303306 104.31783677 41.93280619 99.44015115 39.8125 94.5625 C39.18998856 93.13043213 39.18998856 93.13043213 38.55490112 91.66943359 C33.44757533 79.92090156 28.33484612 68.17474763 23.21337891 56.43237305 C21.8006901 53.19334596 20.38888926 49.95393459 18.97802734 46.71411133 C18.30047213 45.15835874 17.62290072 43.60261321 16.9453125 42.046875 C16.61659149 41.29210373 16.28787048 40.53733246 15.94918823 39.75968933 C13.98080531 35.24274001 12.00461443 30.72930116 10.02217102 26.21850586 C8.78087913 23.39218572 7.54372027 20.56406844 6.30734253 17.7355957 C5.73391035 16.42661801 5.15853516 15.11848954 4.58108521 13.8112793 C3.79782079 12.03781545 3.02175229 10.26117859 2.24609375 8.484375 C1.80966553 7.49147461 1.3732373 6.49857422 0.92358398 5.47558594 C0 3 0 3 0 0 Z " fill="#EFEFF0" transform="translate(695,139)"/>
<path d="M0 0 C6.93 0 13.86 0 21 0 C27.8309964 6.90070045 27.8309964 6.90070045 29.6015625 10.07421875 C31.88098732 13.91804684 34.54350356 17.16270351 37.5 20.5 C41.77777871 25.47608325 45.84923166 30.58864188 49.875 35.76953125 C52.99147918 39.7625202 56.20533621 43.65310563 59.5 47.5 C63.76875118 52.48425208 67.84882342 57.58811651 71.875 62.76953125 C74.99147918 66.7625202 78.20533621 70.65310563 81.5 74.5 C85.76875118 79.48425208 89.84882342 84.58811651 93.875 89.76953125 C96.99147918 93.7625202 100.20533621 97.65310563 103.5 101.5 C107.76875118 106.48425208 111.84882342 111.58811651 115.875 116.76953125 C118.99147918 120.7625202 122.20533621 124.65310563 125.5 128.5 C129.7650079 133.47988139 133.8427104 138.57838887 137.86401367 143.75634766 C141.89455225 148.92252306 146.11418683 153.90690939 150.39453125 158.8671875 C153.39367412 162.47335329 156.18579598 166.24772797 159 170 C159.495 85.85 159.495 85.85 160 0 C165.94 0 171.88 0 178 0 C178 79.2 178 158.4 178 240 C169 240 169 240 166.46875 237.98046875 C165.8190625 237.05878906 165.169375 236.13710937 164.5 235.1875 C163.7575 234.18074219 163.015 233.17398437 162.25 232.13671875 C161.5075 231.10160156 160.765 230.06648438 160 229 C158.51395188 227.15533957 157.0141267 225.32168369 155.5 223.5 C101.5 157.5 101.5 157.5 99.234375 154.73046875 C97.78702949 152.96177205 96.33914699 151.19351457 94.890625 149.42578125 C89.84674935 143.26820312 84.82403544 137.09370109 79.80664062 130.91455078 C75.2181923 125.2650574 70.61294873 119.62950595 66 114 C64.49985719 112.16678352 62.99985918 110.33344854 61.5 108.5 C60.7575 107.5925 60.015 106.685 59.25 105.75 C34.5 75.5 34.5 75.5 32.27734375 72.78125 C30.68899886 70.84145315 29.09761327 68.90414382 27.50390625 66.96875 C26.69824219 65.9890625 25.89257812 65.009375 25.0625 64 C24.33160156 63.113125 23.60070313 62.22625 22.84765625 61.3125 C21 59 21 59 19 56 C18.67 115.4 18.34 174.8 18 236 C12.06 236 6.12 236 0 236 C0 158.12 0 80.24 0 0 Z " fill="#3B4877" transform="translate(1948,1179)"/>
<path d="M0 0 C2.97 0 5.94 0 9 0 C24.06970963 33.27747061 39.09634675 66.5740217 54.02880859 99.91333008 C58.67384804 110.28097115 63.33630126 120.64074225 68 131 C73.17548568 142.49606635 78.34665218 153.99398877 83.5 165.5 C89.83637405 179.64682097 96.19686211 193.78276293 102.56079102 207.91720581 C103.2765928 209.50759098 103.99193029 211.09818521 104.70678711 212.68899536 C106.6428582 216.99562972 108.58949592 221.2971546 110.54882812 225.59326172 C110.9663031 226.51195541 111.38377808 227.43064911 111.81390381 228.37718201 C112.62129223 230.15351846 113.43160777 231.92852806 114.24517822 233.70204163 C114.60609558 234.49767014 114.96701294 235.29329865 115.33886719 236.11303711 C115.82090607 237.16859047 115.82090607 237.16859047 116.31268311 238.24546814 C117 240 117 240 117 242 C101.49 242 85.98 242 70 242 C68.783125 238.720625 67.56625 235.44125 66.3125 232.0625 C60.09217181 215.60096228 52.98796674 199.50283034 45.9621582 183.37329102 C45.27536232 181.78859009 45.27536232 181.78859009 44.57469177 180.171875 C43.70321399 178.16128982 42.82722417 176.15265281 41.94618225 174.14624023 C41.36349831 172.79973389 41.36349831 172.79973389 40.76904297 171.42602539 C40.25469193 170.24793053 40.25469193 170.24793053 39.72994995 169.04603577 C39 167 39 167 39 164 C9.63 164 -19.74 164 -50 164 C-50.99 166.97 -51.98 169.94 -53 173 C-54.00374879 175.43542861 -55.04277707 177.85662699 -56.1171875 180.26171875 C-56.41092758 180.92293732 -56.70466766 181.58415588 -57.00730896 182.26541138 C-57.63506782 183.67753716 -58.26463875 185.08885861 -58.89590454 186.49942017 C-60.57580395 190.25365474 -62.24188563 194.01402485 -63.91015625 197.7734375 C-64.25006088 198.53838028 -64.58996552 199.30332306 -64.94017029 200.09144592 C-68.44228625 207.97913893 -71.88431136 215.8924533 -75.3125 223.8125 C-75.58858093 224.44924652 -75.86466187 225.08599304 -76.14910889 225.74203491 C-78.49006191 231.14151113 -80.81416641 236.53541602 -83 242 C-89.93 242 -96.86 242 -104 242 C-102.10108262 236.30324785 -100.2154359 230.90189373 -97.796875 225.453125 C-97.48649292 224.7447197 -97.17611084 224.03631439 -96.85632324 223.30644226 C-96.18038242 221.76481212 -95.50266909 220.22395816 -94.82336426 218.68380737 C-93.32871793 215.294761 -91.843008 211.90181834 -90.35662842 208.50914001 C-89.54557808 206.6580899 -88.73408393 204.80723418 -87.92218018 202.95655823 C-82.66339589 190.96530415 -77.45903604 178.95042406 -72.25 166.9375 C-71.25118384 164.63499045 -70.25232345 162.3325001 -69.25341797 160.0300293 C-62.65279909 144.81492855 -56.05579355 129.59826332 -49.46386719 114.37939453 C-47.08401006 108.88540147 -44.70325955 103.39179557 -42.3225708 97.89816284 C-40.96500998 94.76545802 -39.60750773 91.63272782 -38.25 88.5 C-37.70833362 87.24999988 -37.16666695 85.99999988 -36.625 84.75 C-36.356875 84.13125 -36.08875 83.5125 -35.8125 82.875 C-35 81 -34.1875 79.125 -33.375 77.25 C-33.10689514 76.63129532 -32.83879028 76.01259064 -32.56256104 75.37513733 C-32.02069434 74.12467808 -31.47882422 72.87422032 -30.93695068 71.62376404 C-29.58581634 68.50580268 -28.23474087 65.38781584 -26.88378906 62.26977539 C-24.4102343 56.56089351 -21.93618068 50.85222986 -19.46003723 45.14447021 C-12.93835949 30.1112362 -6.43706131 15.06970942 0 0 Z M-5 60 C-9.61904124 68.67939575 -13.37958219 77.72516009 -17.21563721 86.76733398 C-19.19429262 91.43110656 -21.18205113 96.09098319 -23.171875 100.75 C-23.57358917 101.69065308 -23.97530334 102.63130615 -24.38919067 103.60046387 C-27.057756 109.83505228 -29.76769305 116.050002 -32.515625 122.25 C-33.0427861 123.43946228 -33.0427861 123.43946228 -33.58059692 124.6529541 C-35.24056258 128.39325207 -36.90704003 132.13054824 -38.57958984 135.86523438 C-39.1702741 137.19139436 -39.76093319 138.51756555 -40.3515625 139.84375 C-41.12234131 141.56368164 -41.12234131 141.56368164 -41.90869141 143.31835938 C-43.12564598 145.82621377 -43.12564598 145.82621377 -43 148 C-18.25 148 6.5 148 32 148 C30.13887101 142.41661303 28.3187251 137.14513513 26.05859375 131.7578125 C25.77843414 131.0874295 25.49827454 130.41704651 25.20962524 129.72634888 C24.28863427 127.52460729 23.36309113 125.32481119 22.4375 123.125 C21.78607563 121.57011318 21.13495959 120.01509716 20.48413086 118.45996094 C19.08329074 115.11417309 17.68052168 111.76920289 16.27636719 108.42480469 C13.84884558 102.64192643 11.42801102 96.85625864 9.0078125 91.0703125 C4.67477459 80.71232627 0.33836398 70.35575646 -4 60 C-4.33 60 -4.66 60 -5 60 Z " fill="#3B4877" transform="translate(1245,1173)"/>
<path d="M0 0 C2.05078125 0.03255208 4.1015625 0.06510417 6.15234375 0.09765625 C11.63598085 11.75729769 16.97449571 23.47985025 22.27734375 35.22265625 C23.12619882 37.10075859 23.97507606 38.97885091 24.82397461 40.85693359 C29.98210838 52.27264803 35.12230074 63.69622392 40.23999023 75.13012695 C44.76033326 85.22930721 49.2981626 95.32055682 53.83984375 105.41015625 C54.22004669 106.25483459 54.60024963 107.09951294 54.99197388 107.9697876 C56.93511997 112.28671659 58.87841014 116.6035807 60.82177734 120.92041016 C63.10559407 125.99361226 65.38883174 131.06707479 67.671875 136.140625 C68.04202728 136.96318283 68.41217957 137.78574066 68.79354858 138.63322449 C70.66076193 142.78264681 72.5277878 146.93215336 74.39453125 151.08178711 C78.17839178 159.4924861 81.96533938 167.90177447 85.7578125 176.30859375 C92.80027143 191.92312668 99.82987313 207.54348696 106.77090454 223.20343018 C107.43697947 224.70523434 108.10425922 226.20650476 108.77279663 227.70721436 C109.68683919 229.76023748 110.59608769 231.81531243 111.50390625 233.87109375 C112.01775879 235.03044434 112.53161133 236.18979492 113.06103516 237.38427734 C114.15234375 240.09765625 114.15234375 240.09765625 114.15234375 242.09765625 C98.64234375 242.09765625 83.13234375 242.09765625 67.15234375 242.09765625 C65.87359375 238.50890625 64.59484375 234.92015625 63.27734375 231.22265625 C57.87941339 216.38333792 51.62160332 201.92706247 45.31103516 187.45751953 C44.92746353 186.57501526 44.54389191 185.69251099 44.1486969 184.78326416 C43.4298058 183.13091309 42.70753245 181.48002726 41.98106384 179.83099365 C41.65288162 179.07707336 41.3246994 178.32315308 40.98657227 177.54638672 C40.70362808 176.90168427 40.4206839 176.25698181 40.12916565 175.59274292 C38.65106688 171.81724963 37.43449528 167.94411085 36.15234375 164.09765625 C6.78234375 164.09765625 -22.58765625 164.09765625 -52.84765625 164.09765625 C-53.17765625 165.74765625 -53.50765625 167.39765625 -53.84765625 169.09765625 C-54.32426405 170.39939105 -54.84460546 171.68594519 -55.40722656 172.95288086 C-55.72600266 173.6775354 -56.04477875 174.40218994 -56.37321472 175.14880371 C-56.72056168 175.92469849 -57.06790863 176.70059326 -57.42578125 177.5 C-57.78912064 178.32270386 -58.15246002 179.14540771 -58.52680969 179.99304199 C-59.71260798 182.67575678 -60.90516591 185.35541037 -62.09765625 188.03515625 C-63.32626688 190.81074246 -64.55308462 193.58711655 -65.77980042 196.36354065 C-66.60510741 198.23117336 -67.43098632 200.09855344 -68.25743103 201.96568298 C-72.0198056 210.46957019 -75.7251244 218.99752185 -79.41015625 227.53515625 C-80.45275427 229.9506815 -81.49573762 232.36603842 -82.5390625 234.78125 C-83.17630249 236.25936157 -83.17630249 236.25936157 -83.82641602 237.76733398 C-84.4658021 239.22632039 -85.1352721 240.67288795 -85.84765625 242.09765625 C-92.77765625 242.09765625 -99.70765625 242.09765625 -106.84765625 242.09765625 C-103.12146909 232.09733576 -98.9616669 222.35352548 -94.63751221 212.60073853 C-92.61682448 208.0417769 -90.60719755 203.47794597 -88.59765625 198.9140625 C-88.19181305 197.99265976 -87.78596985 197.07125702 -87.36782837 196.12193298 C-83.68122863 187.74125852 -80.06495209 179.33159624 -76.47265625 170.91015625 C-70.61159282 157.17747375 -64.68167308 143.47561615 -58.72265625 129.78515625 C-58.29252228 128.7968985 -57.86238831 127.80864075 -57.41921997 126.79043579 C-55.72647305 122.90148138 -54.03360716 119.01257881 -52.34046936 115.12379456 C-48.85549948 107.11862625 -45.37999267 99.10939409 -41.91015625 91.09765625 C-41.39573975 89.91002686 -40.88132324 88.72239746 -40.35131836 87.4987793 C-38.84985212 84.03184454 -37.34869045 80.56477809 -35.84765625 77.09765625 C-32.48627107 69.33345476 -29.12353182 61.56984447 -25.7568512 53.80793762 C-23.95041467 49.64266138 -22.14572746 45.4766322 -20.34228516 41.31005859 C-18.05519588 36.02633945 -15.76559207 30.74371522 -13.47463989 25.46166992 C-12.558008 23.34712503 -11.64221354 21.23221692 -10.7272644 19.11694336 C-9.44147217 16.14471031 -8.15271992 13.17377756 -6.86328125 10.203125 C-6.47223709 9.297332 -6.08119293 8.391539 -5.67829895 7.45829773 C-5.319431 6.63312149 -4.96056305 5.80794525 -4.59082031 4.95776367 C-4.27695374 4.23328537 -3.96308716 3.50880707 -3.63970947 2.76237488 C-2.38539081 0.12607774 -2.38539081 0.12607774 0 0 Z M-7.84765625 60.09765625 C-14.65404481 75.28460676 -21.36009204 90.51291206 -27.97265625 105.78515625 C-28.29137695 106.51979095 -28.61009766 107.25442566 -28.93847656 108.01132202 C-34.70961022 121.31973603 -40.26750352 134.70528969 -45.84765625 148.09765625 C-20.76765625 148.09765625 4.31234375 148.09765625 30.15234375 148.09765625 C25.20234375 136.21765625 25.20234375 136.21765625 20.15234375 124.09765625 C15.80859375 113.59375 15.80859375 113.59375 13.73413086 108.57202148 C7.0285236 92.34409922 0.26299832 76.15340944 -6.84765625 60.09765625 C-7.17765625 60.09765625 -7.50765625 60.09765625 -7.84765625 60.09765625 Z " fill="#3B4877" transform="translate(298.84765625,1172.90234375)"/>
<path d="M0 0 C2.97 0 5.94 0 9 0 C24.06970963 33.27747061 39.09634675 66.5740217 54.02880859 99.91333008 C58.67384804 110.28097115 63.33630126 120.64074225 68 131 C73.17548568 142.49606635 78.34665218 153.99398877 83.5 165.5 C89.83637405 179.64682097 96.19686211 193.78276293 102.56079102 207.91720581 C103.2765928 209.50759098 103.99193029 211.09818521 104.70678711 212.68899536 C106.6428582 216.99562972 108.58949592 221.2971546 110.54882812 225.59326172 C110.9663031 226.51195541 111.38377808 227.43064911 111.81390381 228.37718201 C112.62129223 230.15351846 113.43160777 231.92852806 114.24517822 233.70204163 C114.60609558 234.49767014 114.96701294 235.29329865 115.33886719 236.11303711 C115.82090607 237.16859047 115.82090607 237.16859047 116.31268311 238.24546814 C117 240 117 240 117 242 C101.49 242 85.98 242 70 242 C68.411875 237.7925 66.82375 233.585 65.1875 229.25 C59.00427339 213.0653662 52.13039461 197.19498625 45.14916992 181.34082031 C44.74206284 180.41124512 44.33495575 179.48166992 43.91551208 178.52392578 C43.14526609 176.76593361 42.37038537 175.00996264 41.59022522 173.25634766 C41.07715065 172.08386475 41.07715065 172.08386475 40.55371094 170.88769531 C40.10170319 169.86545868 40.10170319 169.86545868 39.64056396 168.8225708 C39 167 39 167 39 164 C9.63 164 -19.74 164 -50 164 C-50.99 166.97 -51.98 169.94 -53 173 C-53.98025512 175.37687602 -54.99567773 177.7395735 -56.046875 180.0859375 C-56.47941841 181.05759857 -56.47941841 181.05759857 -56.92070007 182.04888916 C-57.53949396 183.43840286 -58.16003433 184.82713993 -58.78219604 186.21514893 C-60.45416703 189.94649173 -62.11189907 193.68414492 -63.76953125 197.421875 C-64.11351456 198.19701447 -64.45749786 198.97215393 -64.81190491 199.77078247 C-68.76183394 208.69005086 -72.60448 217.65500763 -76.4375 226.625 C-76.93618591 227.79153107 -76.93618591 227.79153107 -77.44494629 228.98162842 C-79.29916525 233.32001205 -81.15003432 237.65979682 -83 242 C-89.93 242 -96.86 242 -104 242 C-101.97582051 235.92746152 -99.893998 230.18981703 -97.296875 224.3828125 C-96.94255905 223.58111633 -96.5882431 222.77942017 -96.22319031 221.95343018 C-95.46378449 220.2358456 -94.70264596 218.51902622 -93.93991089 216.80291748 C-91.89495685 212.20070885 -89.86390091 207.5923718 -87.83203125 202.984375 C-87.42062393 202.05205048 -87.00921661 201.11972595 -86.58534241 200.15914917 C-82.80877974 191.59010474 -79.11089388 182.9886687 -75.4375 174.375 C-70.13700961 161.95548946 -64.77809026 149.56272816 -59.375 137.1875 C-58.83593521 135.95276443 -58.83593521 135.95276443 -58.28598022 134.69308472 C-56.86357459 131.43521864 -55.44114836 128.17736156 -54.01856995 124.91957092 C-50.74955288 117.43109685 -47.49652661 109.93574768 -44.25 102.4375 C-43.46532349 100.62523926 -43.46532349 100.62523926 -42.66479492 98.77636719 C-41.62555043 96.3756946 -40.58640547 93.97497891 -39.54736328 91.57421875 C-37.4616322 86.75643664 -35.3733436 81.93976475 -33.28515625 77.12304688 C-16.57240646 38.59175816 -16.57240646 38.59175816 0 0 Z M-5 60 C-9.61904124 68.67939575 -13.37958219 77.72516009 -17.21563721 86.76733398 C-19.19429262 91.43110656 -21.18205113 96.09098319 -23.171875 100.75 C-23.57358917 101.69065308 -23.97530334 102.63130615 -24.38919067 103.60046387 C-27.057756 109.83505228 -29.76769305 116.050002 -32.515625 122.25 C-33.0427861 123.43946228 -33.0427861 123.43946228 -33.58059692 124.6529541 C-35.24056258 128.39325207 -36.90704003 132.13054824 -38.57958984 135.86523438 C-39.1702741 137.19139436 -39.76093319 138.51756555 -40.3515625 139.84375 C-41.12234131 141.56368164 -41.12234131 141.56368164 -41.90869141 143.31835938 C-43.12564598 145.82621377 -43.12564598 145.82621377 -43 148 C-18.25 148 6.5 148 32 148 C30.13887101 142.41661303 28.3187251 137.14513513 26.05859375 131.7578125 C25.77843414 131.0874295 25.49827454 130.41704651 25.20962524 129.72634888 C24.28863427 127.52460729 23.36309113 125.32481119 22.4375 123.125 C21.78607563 121.57011318 21.13495959 120.01509716 20.48413086 118.45996094 C19.08329074 115.11417309 17.68052168 111.76920289 16.27636719 108.42480469 C13.84884558 102.64192643 11.42801102 96.85625864 9.0078125 91.0703125 C4.67477459 80.71232627 0.33836398 70.35575646 -4 60 C-4.33 60 -4.66 60 -5 60 Z " fill="#3B4877" transform="translate(1788,1173)"/>
<path d="M0 0 C2.9108234 2.9108234 3.17719318 6.4073817 4 10.3125 C4.165 11.05306641 4.33 11.79363281 4.5 12.55664062 C6.96591854 23.93261638 8.34449015 34.97420162 8.25 46.625 C8.24323242 47.84630615 8.23646484 49.0676123 8.22949219 50.32592773 C8.11634219 60.32062527 7.56474037 70.12557297 6 80 C5.88172852 80.74942871 5.76345703 81.49885742 5.64160156 82.27099609 C-0.82780919 121.09569139 -20.48877235 157.41833528 -46 187 C-46.62261719 187.73347656 -47.24523438 188.46695313 -47.88671875 189.22265625 C-59.98100365 203.07524583 -73.07801434 216.22076496 -88 227 C-88.65677734 227.4851709 -89.31355469 227.9703418 -89.99023438 228.47021484 C-99.91572996 235.79827601 -110.0745932 242.27167399 -121 248 C-121.66386719 248.35046387 -122.32773438 248.70092773 -123.01171875 249.06201172 C-132.45260285 254.0129976 -142.02189718 258.24628226 -152 262 C-152.62213379 262.23879883 -153.24426758 262.47759766 -153.88525391 262.72363281 C-160.58062085 265.28796356 -166.81209598 267.56872576 -174 268 C-171.32056041 265.27019501 -168.60697686 262.6159297 -165.765625 260.0546875 C-158.47714517 253.47866198 -152.04150213 246.76601408 -146 239 C-144.54192708 237.29144439 -143.08358738 235.58311643 -141.625 233.875 C-123.32797157 211.46592163 -110.45718968 184.81623229 -103 157 C-102.81663086 156.34491455 -102.63326172 155.6898291 -102.44433594 155.01489258 C-101.61234276 151.24212352 -101.73126983 147.41132692 -101.6875 143.5625 C-101.64399414 142.2930957 -101.64399414 142.2930957 -101.59960938 140.99804688 C-101.55820246 136.93061367 -101.68707663 134.56053475 -103.703125 130.94921875 C-107.17066965 128.00652355 -109.58300987 128.17898447 -113.9921875 128.390625 C-124.93655509 130.60792545 -133.54557005 140.1671801 -139.55639648 149.05004883 C-143.50423145 155.08606158 -146.7320661 161.1168999 -149 168 C-149.33 168 -149.66 168 -150 168 C-151.50143251 146.354348 -142.64545673 126.55682091 -129.359375 109.94921875 C-118.29175653 97.79160755 -101.1274431 90.23379346 -85 89 C-78.18541896 88.71416139 -71.29664828 88.52798835 -64.53515625 89.49609375 C-47.7106405 91.89428439 -32.90474615 89.48364932 -18.8125 79.8125 C1.03294409 59.96705591 -0.74294445 25.79466903 0 0 Z " fill="#FCFCFC" transform="translate(1309,633)"/>
<path d="M0 0 C12.54 0 25.08 0 38 0 C46.0382165 17.22474963 46.0382165 17.22474963 48.98828125 23.9921875 C49.32891602 24.76939651 49.66955078 25.54660553 50.02050781 26.34736633 C51.11950254 28.85585285 52.21602351 31.36541186 53.3125 33.875 C54.0970673 35.66715328 54.88182069 37.45922509 55.66674805 39.2512207 C56.88515285 42.03305017 58.10337312 44.81495937 59.32087708 47.59718323 C62.11412614 53.98021288 64.91411424 60.36024719 67.71875 66.73828125 C74.34595739 81.81114188 80.96735688 96.88586764 87.5 112 C92.37999335 123.28901978 97.29726513 134.56137455 102.23681641 145.82446289 C103.02484219 147.62147573 103.81245361 149.41867034 104.59960938 151.21606445 C108.96895192 161.19091251 113.38225914 171.13700485 118 181 C118.23120544 180.43229385 118.46241089 179.86458771 118.70062256 179.27967834 C129.52906978 152.69177867 140.36033031 126.10504967 151.21392822 99.52740479 C156.07921547 87.61352321 160.93877819 75.69734199 165.7890625 63.77734375 C166.77213021 61.36197705 167.7552031 58.94661245 168.73828125 56.53125 C170.59874378 51.96007676 172.45794682 47.38839417 174.31640625 42.81640625 C180.13542365 28.512418 186.0387186 14.24527477 192 0 C198.93 0 205.86 0 213 0 C208.88434512 11.20624771 204.47237465 22.23884835 199.82839966 33.23550415 C197.82956518 37.96934942 195.84156836 42.70775086 193.8515625 47.4453125 C193.44452591 48.41352432 193.03748932 49.38173615 192.61811829 50.37928772 C188.57019792 60.01153633 184.56077393 69.65955634 180.5625 79.3125 C180.21786713 80.14425751 179.87323425 80.97601501 179.51815796 81.83297729 C173.02778365 97.49889748 166.55695045 113.17289815 160.08618164 128.84692383 C154.21972504 143.05568298 148.33770034 157.25792436 142.44262695 171.45483398 C138.56423911 180.79798657 134.70224806 190.14769236 130.85546875 199.50390625 C129.55595881 202.66151268 128.25626386 205.8190429 126.95654297 208.9765625 C126.1193357 211.01240318 125.28321161 213.04868969 124.44824219 215.08544922 C123.28457156 217.92395753 122.11723422 220.76093359 120.94921875 223.59765625 C120.60827682 224.43228897 120.2673349 225.26692169 119.9160614 226.12684631 C117.81946617 231.20686972 115.51169739 236.11126662 113 241 C110.03 241 107.06 241 104 241 C96.73829269 225.11702582 89.59320238 209.19321312 82.75 193.125 C77.26866428 180.25523454 71.69986919 167.42720712 66.0625 154.625 C60.37523219 141.70515858 54.7181254 128.77339256 49.125 115.8125 C43.60495802 103.02238674 38.06858654 90.23956433 32.51229858 77.46514893 C31.25607277 74.57646431 30.00063831 71.68743688 28.74536133 68.79833984 C24.75689764 59.62118234 20.76097216 50.44742283 16.74435425 41.282547 C14.87983374 37.02701634 13.01892031 32.76991291 11.1583252 28.51266479 C10.26699295 26.47600094 9.37386857 24.44012039 8.47888184 22.40505981 C7.23797596 19.5831646 6.00312762 16.75869033 4.76953125 13.93359375 C4.40074356 13.09931854 4.03195587 12.26504333 3.6519928 11.40548706 C3.3154216 10.63157623 2.9788504 9.85766541 2.63208008 9.06030273 C2.33932693 8.39296616 2.04657379 7.72562958 1.74494934 7.03807068 C1 5 1 5 0 0 Z " fill="#3B4877" transform="translate(0,1179)"/>
<path d="M0 0 C0 83.49 0 166.98 0 253 C-4.75081481 252.04983704 -8.00667564 250.57403577 -12.0625 248.125 C-13.04778687 247.53041992 -13.04778687 247.53041992 -14.05297852 246.92382812 C-20.80474696 242.7075477 -26.42517981 237.64893154 -32 232 C-32.73863281 231.26007813 -33.47726562 230.52015625 -34.23828125 229.7578125 C-45.93799491 217.35384423 -53.91369361 200.4753627 -58 184 C-58.25394531 183.00871094 -58.50789062 182.01742187 -58.76953125 180.99609375 C-62.42769786 166.02103735 -63.32238732 151.774442 -63.26074219 136.42480469 C-63.25006762 133.26998463 -63.26066502 130.11573981 -63.2734375 126.9609375 C-63.28648075 110.53852228 -62.33904097 94.62703845 -58.375 78.625 C-57.98803955 77.04755005 -57.98803955 77.04755005 -57.59326172 75.43823242 C-52.6016093 55.95017351 -44.56179232 37.0948645 -31 22 C-30.56703613 21.51789063 -30.13407227 21.03578125 -29.68798828 20.5390625 C-22.96513485 13.16334582 -10.68406259 0 0 0 Z " fill="#3C4978" transform="translate(1063,149)"/>
<path d="M0 0 C1.29282676 -0.00228982 1.29282676 -0.00228982 2.61177123 -0.0046259 C5.53752533 -0.00856303 8.46322886 -0.00529499 11.38898331 -0.00213462 C13.50172657 -0.0034796 15.6144696 -0.00526252 17.72721216 -0.00744686 C23.58402282 -0.01220756 29.44081806 -0.01066535 35.29762952 -0.00816908 C41.65002939 -0.0065446 48.00242585 -0.01066963 54.35482466 -0.01407826 C65.50513724 -0.0192476 76.65544537 -0.02068147 87.80575901 -0.01962215 C99.77493555 -0.01849933 111.74410897 -0.01952606 123.71328503 -0.02319461 C124.46814773 -0.02342426 125.22301043 -0.02365392 126.00074776 -0.02389053 C129.07498527 -0.02483212 132.14922278 -0.02578781 135.22346028 -0.02676172 C167.32752601 -0.0369174 199.43159 -0.03996812 231.53565716 -0.04055383 C234.99349556 -0.04061858 238.45133396 -0.04068651 241.90917236 -0.04075724 C242.76719303 -0.04077424 243.62521371 -0.04079125 244.50923501 -0.04080877 C263.5049484 -0.04121685 282.50066146 -0.04340557 301.49637467 -0.04591308 C309.3128922 -0.04694141 317.12940973 -0.04793142 324.94592726 -0.04892933 C325.80952828 -0.04903992 326.67312929 -0.04915051 327.56290003 -0.04926445 C377.06568568 -0.05559042 426.5684711 -0.05971336 476.07125717 -0.0592559 C477.92466456 -0.05924012 479.77807195 -0.05922438 481.63147934 -0.05920869 C489.99987725 -0.0591353 498.36827516 -0.05904713 506.73667307 -0.05895481 C510.46852655 -0.05891368 514.20038002 -0.05887353 517.9322335 -0.05883349 C519.8000954 -0.0588131 521.6679573 -0.05879208 523.5358192 -0.05877043 C582.6138299 -0.05809002 641.69183461 -0.06540957 700.76984364 -0.07931072 C715.65613735 -0.08281156 730.54243107 -0.08628094 745.42872483 -0.08957511 C746.34525608 -0.08977799 747.26178734 -0.08998086 748.20609227 -0.09018988 C776.44023361 -0.09640181 804.67437447 -0.10016985 832.90851647 -0.1014331 C833.79454748 -0.10147305 834.6805785 -0.101513 835.59345894 -0.10155416 C855.04102026 -0.10240731 874.48858155 -0.10266867 893.93614289 -0.10238378 C900.89428252 -0.1022873 907.85242216 -0.10223526 914.81056179 -0.10220506 C916.54165958 -0.10219714 918.27275737 -0.10218694 920.00385516 -0.10217443 C947.62232938 -0.10199789 975.24079849 -0.10770509 1002.85927124 -0.11632825 C1030.66519044 -0.12496583 1058.47110254 -0.12718007 1086.27702251 -0.12056693 C1090.11442815 -0.11965455 1093.9518338 -0.11881129 1097.78923947 -0.11800891 C1098.54151705 -0.11784882 1099.29379463 -0.11768874 1100.0688685 -0.1175238 C1112.00840886 -0.11516546 1123.94793699 -0.11954064 1135.88747505 -0.1266801 C1147.61123038 -0.13355093 1159.33496372 -0.13318158 1171.05871908 -0.12548796 C1177.33702744 -0.12157504 1183.61529212 -0.12091996 1189.89359754 -0.12894531 C1195.59390936 -0.13616857 1201.29414071 -0.13435413 1206.99444881 -0.12502145 C1209.05456554 -0.12328594 1211.1146884 -0.12497398 1213.17479891 -0.13032265 C1215.95282498 -0.1370578 1218.73056203 -0.13167323 1221.50857639 -0.12304783 C1222.31696905 -0.12794745 1223.12536171 -0.13284707 1223.95825112 -0.13789516 C1227.78077422 -0.11289029 1229.55797647 -0.04615771 1232.81696278 2.12649983 C1232.44196278 4.06399983 1232.44196278 4.06399983 1231.81696278 6.12649983 C1228.61796949 7.72599648 1225.14738311 7.2628478 1221.63392556 7.25299966 C1220.3410988 7.25528949 1220.3410988 7.25528949 1219.02215433 7.25762557 C1216.09640023 7.26156269 1213.1706967 7.25829466 1210.24494225 7.25513428 C1208.13219898 7.25647926 1206.01945596 7.25826219 1203.9067134 7.26044652 C1198.04990274 7.26520722 1192.19310749 7.26366502 1186.33629604 7.26116875 C1179.98389616 7.25954426 1173.6314997 7.26366929 1167.27910089 7.26707792 C1156.12878832 7.27224726 1144.97848019 7.27368114 1133.82816654 7.27262181 C1121.85899001 7.27149899 1109.88981659 7.27252572 1097.92064053 7.27619427 C1097.16577783 7.27642393 1096.41091512 7.27665358 1095.63317779 7.27689019 C1092.55894028 7.27783179 1089.48470278 7.27878747 1086.41046528 7.27976138 C1054.30639954 7.28991706 1022.20233555 7.29296778 990.0982684 7.29355349 C986.64043 7.29361824 983.1825916 7.29368618 979.7247532 7.2937569 C978.43772219 7.29378241 978.43772219 7.29378241 977.12469054 7.29380843 C958.12897715 7.29421652 939.1332641 7.29640524 920.13755089 7.29891275 C912.32103336 7.29994107 904.50451583 7.30093109 896.68799829 7.301929 C895.82439728 7.30203959 894.96079627 7.30215018 894.07102552 7.30226412 C844.56823988 7.30859008 795.06545445 7.31271303 745.56266838 7.31225556 C743.709261 7.31223978 741.85585361 7.31222405 740.00244622 7.31220835 C731.63404831 7.31213497 723.2656504 7.3120468 714.89725249 7.31195447 C711.16539901 7.31191334 707.43354553 7.3118732 703.70169206 7.31183316 C701.83383016 7.31181276 699.96596826 7.31179174 698.09810636 7.3117701 C639.02009566 7.31108968 579.94209094 7.31840924 520.86408192 7.33231038 C505.97778821 7.33581122 491.09149449 7.3392806 476.20520073 7.34257478 C475.28866948 7.34277765 474.37213822 7.34298052 473.42783329 7.34318954 C445.19369195 7.34940147 416.95955109 7.35316951 388.72540909 7.35443276 C387.83937807 7.35447271 386.95334706 7.35451266 386.04046662 7.35455382 C366.59290529 7.35540697 347.145344 7.35566834 327.69778267 7.35538345 C320.73964304 7.35528696 313.7815034 7.35523492 306.82336377 7.35520472 C305.09226598 7.3551968 303.36116819 7.3551866 301.6300704 7.3551741 C274.01159617 7.35499755 246.39312707 7.36070475 218.77465431 7.36932791 C190.96873512 7.37796549 163.16282302 7.38017973 135.35690305 7.37356659 C131.51949741 7.37265422 127.68209176 7.37181096 123.84468609 7.37100857 C123.09240851 7.37084849 122.34013093 7.3706884 121.56505706 7.37052346 C109.6255167 7.36816512 97.68598857 7.3725403 85.74645051 7.37967976 C74.02269518 7.38655059 62.29896183 7.38618124 50.57520648 7.37848763 C44.29689812 7.3745747 38.01863344 7.37391962 31.74032802 7.38194498 C26.0400162 7.38916823 20.33978485 7.38735379 14.63947674 7.37802111 C12.57936002 7.3762856 10.51923716 7.37797365 8.45912665 7.38332232 C5.68110058 7.39005747 2.90336353 7.3846729 0.12534916 7.37604749 C-1.08723983 7.38339692 -1.08723983 7.38339692 -2.32432556 7.39089482 C-6.14684866 7.36588996 -7.92405091 7.29915737 -11.18303722 5.12649983 C-10.80803722 3.18899983 -10.80803722 3.18899983 -10.18303722 1.12649983 C-6.98404393 -0.47299681 -3.51345755 -0.00984814 0 0 Z " fill="#ED4F46" transform="translate(452.18303722143173,1470.8735001683235)"/>
<path d="M0 0 C1.42199139 0.01681873 2.84403549 0.02961448 4.26609802 0.03858948 C7.98125145 0.07270247 11.69315921 0.16086946 15.40704346 0.26092529 C19.20776467 0.35355125 23.0090186 0.39421479 26.81054688 0.43945312 C34.24886421 0.5355295 41.68452163 0.68880459 49.12109375 0.87890625 C42.86552356 8.22416002 42.86552356 8.22416002 39.69140625 11.625 C38.840625 12.53862305 38.840625 12.53862305 37.97265625 13.47070312 C37.11800781 14.38432617 37.11800781 14.38432617 36.24609375 15.31640625 C35.653125 15.95255859 35.06015625 16.58871094 34.44921875 17.24414062 C33.00775647 18.79022517 31.56460508 20.33473463 30.12109375 21.87890625 C26.19598145 20.95052379 22.79279864 19.4216788 19.14453125 17.71875 C17.17836045 16.75112326 17.17836045 16.75112326 15.12109375 16.87890625 C15.70117188 17.21921875 16.28125 17.55953125 16.87890625 17.91015625 C24.110661 22.3971856 29.48320087 27.61035412 32.12109375 35.87890625 C33.14071022 44.91819839 32.98499135 52.72004823 27.96484375 60.60546875 C25.12241938 64.11032253 22.02469933 66.64007364 18.12109375 68.87890625 C17.2084375 69.41515625 16.29578125 69.95140625 15.35546875 70.50390625 C11.62115122 72.09144221 8.36656157 72.41714497 4.37109375 72.37890625 C3.31547241 72.36923828 3.31547241 72.36923828 2.23852539 72.359375 C-5.10491373 72.10339455 -10.4982439 70.00891113 -15.93359375 64.9765625 C-21.24558944 59.23475803 -23.87890625 54.89070885 -23.87890625 46.87890625 C-33.77890625 47.37390625 -33.77890625 47.37390625 -43.87890625 47.87890625 C-41.45865715 53.50997386 -41.45865715 53.50997386 -38.87890625 55.87890625 C-37.73069859 58.5130297 -36.78774251 61.15239746 -35.87890625 63.87890625 C-38.52629541 65.33953475 -39.77338959 65.87890625 -42.87890625 65.87890625 C-42.87890625 63.89890625 -42.87890625 61.91890625 -42.87890625 59.87890625 C-43.86890625 59.54890625 -44.85890625 59.21890625 -45.87890625 58.87890625 C-46.53890625 54.91890625 -47.19890625 50.95890625 -47.87890625 46.87890625 C-51.50890625 46.87890625 -55.13890625 46.87890625 -58.87890625 46.87890625 C-53.19587902 39.96918849 -46.83883141 33.77025602 -40.47680664 27.49731445 C-33.67431151 20.80329784 -33.67431151 20.80329784 -27.25 13.75 C-26.48018799 12.87589478 -26.48018799 12.87589478 -25.69482422 11.98413086 C-24.45477504 10.54652074 -23.25890149 9.06991192 -22.10403442 7.5630188 C-15.57491403 -0.15493016 -9.65576753 -0.3381677 0 0 Z " fill="#FCFCFC" transform="translate(1250.87890625,639.12109375)"/>
<path d="M0 0 C7.552369 4.87808752 11.57111681 11.92142605 15.375 19.875 C17.49438252 30.47191259 15.98465204 40.46273886 10.375 49.6875 C4.55913135 57.77541562 -3.29885741 62.81563677 -13 65 C-23.23752405 66.33807343 -31.82599754 64.22539703 -40.3515625 58.390625 C-48.52869681 51.71416328 -53.09310984 42.97566414 -54.28515625 32.4921875 C-54.64632238 22.47375323 -51.493795 13.62808233 -45 6 C-31.9245796 -6.67464123 -16.08290973 -8.40406689 0 0 Z " fill="#758E92" transform="translate(923,695)"/>
<path d="M0 0 C3.3 0.99 6.6 1.98 10 3 C10.05607422 4.32451172 10.05607422 4.32451172 10.11328125 5.67578125 C11.13617339 24.34857701 17.23801293 40.94255152 31 54 C31.75539063 54.71671875 32.51078125 55.4334375 33.2890625 56.171875 C36.83593582 59.41403412 40.47329923 62.38426709 44.375 65.1875 C47.45787097 67.47657784 49.64313535 69.29123663 51 73 C50.70673702 79.29326512 48.34779396 83.63275167 45.25 88.9375 C44.60417969 90.07735352 44.60417969 90.07735352 43.9453125 91.24023438 C42.6521358 93.50716538 41.33237939 95.75591492 40 98 C39.33774414 99.12752686 39.33774414 99.12752686 38.66210938 100.27783203 C38.23220703 100.99181152 37.80230469 101.70579102 37.359375 102.44140625 C36.97749023 103.07892822 36.59560547 103.7164502 36.20214844 104.37329102 C34.53304647 106.63186665 32.83825317 107.86546941 30.04370117 108.31396484 C24.09980622 108.37364916 19.68289426 107.08785597 14.3125 104.625 C12.871859 103.99044729 11.43046537 103.35760022 9.98828125 102.7265625 C9.30330566 102.4265332 8.61833008 102.12650391 7.91259766 101.81738281 C-4.9645393 96.31410805 -21.72554346 95.97519448 -34.8828125 100.68359375 C-52.07022213 107.94193591 -62.39835953 117.91373956 -71.25 134.11328125 C-71.84047119 135.18521729 -71.84047119 135.18521729 -72.44287109 136.27880859 C-73.21310561 137.68533763 -73.97187649 139.0982245 -74.71728516 140.51806641 C-76.90754 144.56030894 -78.80950119 147.79910777 -83 150 C-90.30887523 150.62183086 -97.55408527 147.33171422 -104.25 144.8125 C-105.3121875 144.43802734 -106.374375 144.06355469 -107.46875 143.67773438 C-113.52371531 141.42233587 -117.6992005 139.6980689 -121 134 C-121.41015625 131.23828125 -121.41015625 131.23828125 -121.0625 128.3125 C-120.86527344 126.64574219 -120.86527344 126.64574219 -120.6640625 124.9453125 C-119.44149988 117.23469476 -117.72773529 109.61007124 -116 102 C-112.7 102 -109.4 102 -106 102 C-105.58817675 107.90279988 -106.84843274 113.01439157 -108.34375 118.71875 C-109.04466128 122.2233064 -109.10802027 125.43533123 -109 129 C-105.37689672 130.33852796 -101.75121856 131.66993718 -98.125 133 C-96.57619141 133.57234375 -96.57619141 133.57234375 -94.99609375 134.15625 C-93.51689453 134.69765625 -93.51689453 134.69765625 -92.0078125 135.25 C-91.09660645 135.58515625 -90.18540039 135.9203125 -89.24658203 136.265625 C-87.07709213 137.10356885 -87.07709213 137.10356885 -85 137 C-84.443125 135.88882813 -83.88625 134.77765625 -83.3125 133.6328125 C-78.93467863 125.04145886 -74.5368468 117.17691305 -68 110 C-67.484375 109.39285156 -66.96875 108.78570313 -66.4375 108.16015625 C-54.7966726 95.32614404 -36.94913157 87.86178164 -19.89941406 86.87890625 C-10.51011971 86.47436966 -1.88812923 86.63591757 7 90 C7.61037109 90.23058105 8.22074219 90.46116211 8.84960938 90.69873047 C20.6455494 95.19528778 20.6455494 95.19528778 26 98 C26.22171875 97.35160156 26.4434375 96.70320312 26.671875 96.03515625 C27.79159044 93.47627715 28.98717708 91.29594167 30.453125 88.93359375 C30.906875 88.20076172 31.360625 87.46792969 31.828125 86.71289062 C32.78220351 85.1861029 33.74590343 83.66528868 34.71875 82.15039062 C35.16734375 81.41884766 35.6159375 80.68730469 36.078125 79.93359375 C36.70315918 78.9444397 36.70315918 78.9444397 37.34082031 77.93530273 C38.23360091 75.96664252 38.23360091 75.96664252 37.25585938 73.87695312 C35.59289037 71.39155154 33.62201777 69.87745299 31.25 68.0625 C30.34894531 67.35738281 29.44789063 66.65226563 28.51953125 65.92578125 C26.67335728 64.51467463 24.81012731 63.12580782 22.9375 61.75 C10.29344613 50.99898244 2.1189814 33.28250451 0 17 C-0.38066015 11.32757819 -0.25284986 5.67507457 0 0 Z " fill="#FAFAFB" transform="translate(965,694)"/>
<path d="M0 0 C10 0 10 0 12.33984375 1.4765625 C12.86707031 2.18554688 13.39429688 2.89453125 13.9375 3.625 C14.57945313 4.44871094 15.22140625 5.27242187 15.8828125 6.12109375 C16.58148437 7.07113281 17.28015625 8.02117187 18 9 C18.84692724 10.07787702 19.69873975 11.15192843 20.5546875 12.22265625 C22.92189509 15.1898395 25.25794883 18.17983118 27.58544922 21.17822266 C29.84101235 24.08312637 32.10596012 26.98061471 34.375 29.875 C34.82262695 30.44621582 35.27025391 31.01743164 35.73144531 31.60595703 C39.77615945 36.7497472 43.90078057 41.82724651 48.05810547 46.88037109 C53.19084399 53.14965644 58.0499976 59.56499689 63 66 C63.33 44.22 63.66 22.44 64 0 C67.96 0 71.92 0 76 0 C76 29.37 76 58.74 76 89 C65 89 65 89 61.25 85.7734375 C60.13197587 84.33357058 59.04974431 82.86537968 58 81.375 C57.41387939 80.60462402 56.82775879 79.83424805 56.22387695 79.04052734 C55.02804476 77.46524372 53.84600063 75.87939476 52.67822266 74.28320312 C50.69955285 71.59124502 48.64095288 68.97197499 46.56298828 66.35644531 C45.20015611 64.64093134 43.8508412 62.91551171 42.50390625 61.1875 C39.54853826 57.41075829 36.5120262 53.70290526 33.46484375 50 C30.35867513 46.21943344 27.27246556 42.42287415 24.1875 38.625 C23.63594238 37.94646973 23.08438477 37.26793945 22.51611328 36.56884766 C21.98872559 35.91964355 21.46133789 35.27043945 20.91796875 34.6015625 C20.45156982 34.02744629 19.9851709 33.45333008 19.50463867 32.86181641 C17.66152397 30.58117505 15.83179473 28.28974341 14 26 C13.67 46.79 13.34 67.58 13 89 C8.71 89 4.42 89 0 89 C0 59.63 0 30.26 0 0 Z " fill="#718C90" transform="translate(1123,1534)"/>
<path d="M0 0 C10 0 10 0 12.92578125 2.5 C13.7531757 3.64431892 14.54740091 4.81312563 15.3125 6 C16.23195285 7.29209161 17.15393341 8.58238735 18.078125 9.87109375 C18.55056641 10.54897949 19.02300781 11.22686523 19.50976562 11.92529297 C22.03154786 15.43612282 24.80660632 18.73462838 27.5625 22.0625 C32.28617837 27.83718818 36.86543125 33.69816017 41.38671875 39.6328125 C44.96930992 44.29088211 48.70890657 48.8240474 52.44726562 53.35742188 C52.96611328 53.98970703 53.48496094 54.62199219 54.01953125 55.2734375 C54.47432861 55.82435059 54.92912598 56.37526367 55.39770508 56.94287109 C57.69346902 59.89031997 59.82847148 62.95986007 62 66 C62.33 44.22 62.66 22.44 63 0 C66.96 0 70.92 0 75 0 C75 29.37 75 58.74 75 89 C64 89 64 89 60.46875 85.9921875 C59.44419148 84.64570121 58.4557439 83.27117302 57.5 81.875 C56.95794922 81.14796875 56.41589844 80.4209375 55.85742188 79.671875 C54.74553891 78.1789608 53.64710801 76.67593161 52.5625 75.16308594 C50.30172252 72.03332211 47.90237259 69.02140501 45.5 66 C44.60376381 64.85448174 43.70793538 63.70864435 42.8125 62.5625 C39.75455454 58.67056941 36.62930899 54.83462194 33.5 51 C26.5222854 42.44747559 19.62327357 33.83103143 13 25 C12.67 46.12 12.34 67.24 12 89 C8.04 89 4.08 89 0 89 C0 59.63 0 30.26 0 0 Z " fill="#738C90" transform="translate(1702,1534)"/>
<path d="M0 0 C10 0 10 0 12.92578125 2.5 C13.75314517 3.644341 14.54736129 4.81315118 15.3125 6 C16.23329257 7.2933676 17.15657276 8.58496695 18.08203125 9.875 C18.55463379 10.55304688 19.02723633 11.23109375 19.51416016 11.9296875 C22.01633513 15.41612256 24.76606592 18.69446544 27.5 22 C32.96278954 28.68719402 38.3210833 35.45029878 43.63525391 42.25585938 C45.05864084 44.07494278 46.48754169 45.88957326 47.91796875 47.703125 C48.40249512 48.31784668 48.88702148 48.93256836 49.38623047 49.56591797 C50.29741432 50.72166469 51.20914385 51.87698157 52.12158203 53.03173828 C55.48707651 57.30605828 58.73297647 61.64396862 62 66 C62.33 44.22 62.66 22.44 63 0 C66.96 0 70.92 0 75 0 C75 29.37 75 58.74 75 89 C64 89 64 89 60.46875 85.9921875 C59.44419148 84.64570121 58.4557439 83.27117302 57.5 81.875 C56.95794922 81.14796875 56.41589844 80.4209375 55.85742188 79.671875 C54.74553891 78.1789608 53.64710801 76.67593161 52.5625 75.16308594 C50.30172252 72.03332211 47.90237259 69.02140501 45.5 66 C44.60376381 64.85448174 43.70793538 63.70864435 42.8125 62.5625 C39.75455454 58.67056941 36.62930899 54.83462194 33.5 51 C26.5222854 42.44747559 19.62327357 33.83103143 13 25 C12.67 46.12 12.34 67.24 12 89 C8.04 89 4.08 89 0 89 C0 59.63 0 30.26 0 0 Z " fill="#738C90" transform="translate(1341,1534)"/>
<path d="M0 0 C49.63484043 0 49.63484043 0 58.171875 7.8984375 C64.00395119 14.60283278 66.38440434 22.47759544 66.28125 31.20703125 C65.51160734 38.85001048 62.54324037 45.7087251 57 51 C55.62851709 51.91730775 54.23658717 52.80461314 52.828125 53.6640625 C52.11043945 54.10443848 51.39275391 54.54481445 50.65332031 54.99853516 C50.10772461 55.32901855 49.56212891 55.65950195 49 56 C54.67177155 65.35658625 60.356588 74.69563649 66.35717773 83.84619141 C69 87.89831613 69 87.89831613 69 89 C56.98795666 90.49942289 56.98795666 90.49942289 52.93359375 87.44140625 C51.05714407 84.72784368 49.55802031 81.91026436 48 79 C46.98541362 77.38384773 45.95682858 75.7764386 44.91796875 74.17578125 C42.72376723 70.79281353 40.53034178 67.41038561 38.37890625 64 C37.9207251 63.278125 37.46254395 62.55625 36.99047852 61.8125 C36 60 36 60 36 58 C28.08 58 20.16 58 12 58 C12 68.23 12 78.46 12 89 C8.04 89 4.08 89 0 89 C0 59.63 0 30.26 0 0 Z M12 11 C12 22.88 12 34.76 12 47 C16.475625 47.061875 20.95125 47.12375 25.5625 47.1875 C26.96056885 47.21481201 28.3586377 47.24212402 29.79907227 47.27026367 C38.03298635 47.32537371 43.48609715 47.1234692 49.8125 41.5 C53.0050315 37.23622039 53.82884114 32.23150768 54 27 C53.04249449 21.24509575 50.00384331 17.10149802 46 13 C42.43524423 10.62047005 39.25963548 10.76898614 35.046875 10.8046875 C33.83870117 10.80968262 32.63052734 10.81467773 31.38574219 10.81982422 C29.85594727 10.83803223 28.32615234 10.85624023 26.75 10.875 C21.8825 10.91625 17.015 10.9575 12 11 Z " fill="#738C90" transform="translate(1587,1534)"/>
<path d="M0 0 C8.50793339 6.67711228 15.07976454 16.84919785 17.21875 27.56640625 C18.72209023 41.82464876 17.41504065 54.87546742 8.453125 66.65234375 C3.02398065 72.90440958 -2.79411398 77.87488366 -10.53125 80.9375 C-11.5625 81.35 -12.59375 81.7625 -13.65625 82.1875 C-25.18732897 84.41932174 -36.21104326 83.48864869 -46.21875 77.1875 C-57.3749445 69.19911382 -63.85317678 59.4853998 -66.53125 45.9375 C-68.23090859 30.87315753 -64.89095895 18.05344227 -55.53125 5.9375 C-40.74521034 -10.32406961 -17.8627009 -12.31910407 0 0 Z M-47.83984375 15.46484375 C-53.75078509 24.10601203 -55.83911104 34.34525584 -54.0703125 44.61328125 C-51.80373144 54.03959191 -47.81485228 62.25760113 -39.59375 67.75390625 C-33.07851336 71.49276364 -27.06393479 72.97139791 -19.53125 71.9375 C-9.40197259 69.06237759 -3.69659523 63.98801844 1.46875 54.9375 C6.55222162 43.94621 6.51819493 34.39833479 2.7265625 23.0234375 C-0.66855522 14.69380085 -6.80082968 8.73540657 -14.859375 4.80078125 C-27.9555191 0.56942475 -39.43750149 5.29716089 -47.83984375 15.46484375 Z " fill="#728B8F" transform="translate(914.53125,1541.0625)"/>
<path d="M0 0 C9.31852349 7.62685307 16.18164865 19.02875278 17.5390625 31.078125 C18.71113432 45.93638934 15.01937252 58.13798257 6.08984375 70.00390625 C-0.12963406 77.06935837 -11.14712678 82.66462606 -20.5625 83.28125 C-33.2155548 83.44958332 -42.41874168 81.04573546 -52.4609375 73.078125 C-61.3313382 64.35858145 -66.47212234 52.92760099 -66.75341797 40.52905273 C-66.82168251 31.95852284 -66.48723595 24.84133169 -62.4609375 17.078125 C-62.0484375 16.23121094 -61.6359375 15.38429688 -61.2109375 14.51171875 C-55.29722529 3.50750995 -46.33243822 -3.28906604 -34.4609375 -6.921875 C-21.9265603 -9.35998328 -10.60748291 -7.27544937 0 0 Z M-45.8359375 13.328125 C-53.39162089 22.4865291 -55.44141299 32.39645987 -54.4609375 44.078125 C-52.54482422 53.33549156 -48.67094978 61.27296965 -40.92578125 66.9296875 C-33.75692686 71.38514634 -27.91080742 72.94924561 -19.4609375 72.078125 C-11.21703692 69.82361512 -4.49161639 64.34456245 0.3515625 57.390625 C5.5542177 48.21984295 6.46209895 38.32553843 4.5390625 28.078125 C1.44356237 17.70660396 -5.0631311 10.25139367 -14.4609375 5.078125 C-26.36753935 1.10925772 -37.43148607 4.50654087 -45.8359375 13.328125 Z " fill="#728C90" transform="translate(406.4609375,1540.921875)"/>
<path d="M0 0 C4.69884363 4.01602888 8.52443917 7.67197543 10.04296875 13.74609375 C7.07296875 15.72609375 4.10296875 17.70609375 1.04296875 19.74609375 C0.54796875 19.06546875 0.05296875 18.38484375 -0.45703125 17.68359375 C-6.31135419 10.8047643 -11.93703107 5.953627 -21.14453125 4.93359375 C-29.31268674 4.36346746 -35.39936257 6.10716676 -41.76953125 11.30859375 C-48.23214152 17.54284323 -52.16504031 25.77962484 -52.95703125 34.74609375 C-53.07838214 46.79016983 -50.46584842 56.01196965 -42.11328125 64.83203125 C-36.19086366 70.08924976 -29.33909557 72.15693563 -21.515625 72.015625 C-13.47570648 71.16867175 -6.50003912 67.69833645 -0.640625 62.18359375 C2.4971173 57.64078356 2.10432533 53.14547292 2.04296875 47.74609375 C-4.22703125 47.74609375 -10.49703125 47.74609375 -16.95703125 47.74609375 C-16.95703125 44.44609375 -16.95703125 41.14609375 -16.95703125 37.74609375 C-7.05703125 37.74609375 2.84296875 37.74609375 13.04296875 37.74609375 C13.04296875 52.59609375 13.04296875 67.44609375 13.04296875 82.74609375 C9.41296875 82.74609375 5.78296875 82.74609375 2.04296875 82.74609375 C1.54796875 78.29109375 1.54796875 78.29109375 1.04296875 73.74609375 C-0.59671875 75.10734375 -0.59671875 75.10734375 -2.26953125 76.49609375 C-10.99926052 82.95915647 -20.1995407 85.03174506 -30.95703125 83.74609375 C-41.98270428 81.15010195 -51.4557775 75.04693046 -57.95703125 65.74609375 C-65.22936372 53.31275114 -68.09934016 41.67673805 -65.26953125 27.23828125 C-61.64114813 14.44823075 -55.22326803 4.20144694 -43.64453125 -2.56640625 C-29.83756487 -9.64932334 -12.74976224 -9.31266786 0 0 Z " fill="#728B8F" transform="translate(717.95703125,1540.25390625)"/>
<path d="M0 0 C2.82335709 2.60104551 5.22143285 4.94620102 6.6875 8.5625 C6.5 10.53515625 6.5 10.53515625 5.6875 12.5625 C3.83984375 14.046875 3.83984375 14.046875 1.625 15.3125 C0.89152344 15.74046875 0.15804688 16.1684375 -0.59765625 16.609375 C-1.16355469 16.92390625 -1.72945312 17.2384375 -2.3125 17.5625 C-2.70179687 16.97082031 -3.09109375 16.37914062 -3.4921875 15.76953125 C-8.43718827 8.78500252 -13.47307823 5.0155443 -21.82421875 2.9375 C-29.85963366 1.72651125 -36.95733702 3.67145469 -43.625 8.25 C-50.31643291 13.7407524 -53.79994358 21.1270892 -55.3125 29.5625 C-56.43136275 41.31055884 -54.57400543 51.54804244 -47.01171875 60.84375 C-41.25665749 66.66496139 -34.1367229 69.49497647 -26 69.9375 C-15.41165553 69.63137439 -8.45923212 63.70923212 -1.3125 56.5625 C-0.84959779 53.90007179 -0.84959779 53.90007179 -0.6875 50.9375 C-0.56375 49.16375 -0.44 47.39 -0.3125 45.5625 C-6.5825 45.5625 -12.8525 45.5625 -19.3125 45.5625 C-19.3125 42.2625 -19.3125 38.9625 -19.3125 35.5625 C-9.7425 35.5625 -0.1725 35.5625 9.6875 35.5625 C9.6875 50.4125 9.6875 65.2625 9.6875 80.5625 C6.3875 80.5625 3.0875 80.5625 -0.3125 80.5625 C-0.8075 76.1075 -0.8075 76.1075 -1.3125 71.5625 C-1.92996094 72.03300781 -2.54742188 72.50351563 -3.18359375 72.98828125 C-13.09603004 80.27550611 -20.9388034 82.63388105 -33.3125 81.5625 C-45.11026587 79.6700838 -54.38949566 72.01417408 -61.3125 62.5625 C-68.7566035 50.19354431 -70.39829513 36.31621023 -67.66015625 22.19921875 C-66.74479549 19.48456517 -65.66991316 17.08398557 -64.3125 14.5625 C-63.58353516 13.16644531 -63.58353516 13.16644531 -62.83984375 11.7421875 C-56.91648731 1.46383378 -48.65093571 -5.01420266 -37.3125 -8.4375 C-24.05789936 -11.68352465 -10.4091539 -8.72169543 0 0 Z " fill="#728B8F" transform="translate(1282.3125,1542.4375)"/>
<path d="M0 0 C4.67972684 4.31192222 7.6230997 8.05774925 10 14 C7.03 15.98 4.06 17.96 1 20 C0.484375 19.29875 -0.03125 18.5975 -0.5625 17.875 C-6.45794473 10.92139852 -12.59278773 6.49355104 -21.8125 5.125 C-29.26076823 4.58166128 -36.5125534 6.72451141 -42.40625 11.3671875 C-49.47007357 18.604144 -53.03834705 28.52665638 -53.375 38.5 C-53.02535688 49.27812914 -49.05976144 58.39089768 -41.25 65.8125 C-35.40012443 70.61971482 -28.87872485 72.6593946 -21.31640625 72.34375 C-12.94390349 71.10128753 -6.12706115 66.6664848 0 61 C1.28446919 58.43106162 1.32977144 56.23423663 1.5625 53.375 C1.706875 51.60125 1.85125 49.8275 2 48 C-4.27 48 -10.54 48 -17 48 C-17 44.7 -17 41.4 -17 38 C-7.43 38 2.14 38 12 38 C12 52.85 12 67.7 12 83 C8.7 83 5.4 83 2 83 C1.505 78.545 1.505 78.545 1 74 C0.38253906 74.47050781 -0.23492188 74.94101563 -0.87109375 75.42578125 C-10.68761723 82.64249486 -18.71193888 85.26473612 -31 84 C-42.79710933 81.56820323 -52.11609481 74.83660268 -59 65 C-65.81548999 52.47179162 -68.04875774 39.49988341 -65.3125 25.4765625 C-61.67909824 13.69828513 -54.08540171 2.96970137 -43.0625 -2.875 C-29.13051086 -9.2019125 -12.88385872 -8.70814555 0 0 Z " fill="#728C90" transform="translate(1858,1540)"/>
<path d="M0 0 C5.78517598 1.98122465 10.07272907 6.6855732 14.421875 10.8125 C27.37030017 22.89769683 42.92833512 29.70786875 60.875 29.1015625 C80.56939851 27.24956631 94.90424866 18.08872509 108.96875 4.8828125 C112.90535211 1.30529234 115.47418333 0.02130957 120.703125 0.15625 C125.66955694 1.3602335 129.05531254 4.99891357 132.73535156 8.38574219 C134.40052311 9.88891979 136.10875685 11.32640107 137.8359375 12.7578125 C138.42987305 13.25047607 139.02380859 13.74313965 139.63574219 14.25073242 C140.22000977 14.73517822 140.80427734 15.21962402 141.40625 15.71875 C148.12039755 21.29263368 148.12039755 21.29263368 148.7109375 26.7578125 C148.63959186 32.9009185 145.67505229 37.13710507 142.40625 42.15625 C141.85066406 43.04441406 141.29507813 43.93257812 140.72265625 44.84765625 C138.62297062 48.19197481 136.4716384 51.4956674 134.28125 54.78125 C127.53125 53.90625 127.53125 53.90625 125.28125 52.78125 C125.87667009 48.84722442 127.08758799 45.93027178 129.03125 42.46875 C129.52109375 41.58574219 130.0109375 40.70273437 130.515625 39.79296875 C132.69581135 36.07411106 134.97860791 32.42518684 137.28125 28.78125 C134.86651163 26.67486205 132.44912245 24.57153926 130.03125 22.46875 C129.00837891 21.57639648 129.00837891 21.57639648 127.96484375 20.66601562 C127.30097656 20.08916016 126.63710938 19.51230469 125.953125 18.91796875 C125.3456543 18.38905029 124.73818359 17.86013184 124.11230469 17.31518555 C122.21889443 15.72901266 120.26976163 14.24576194 118.28125 12.78125 C114.78217943 14.28768357 112.45945566 16.34543865 109.71875 18.96875 C94.0455901 33.26707131 74.63200065 40.94236336 53.3203125 40.12109375 C35.9889651 38.94303167 21.16420344 31.12998131 8.28125 19.78125 C7.49363281 19.10191406 6.70601562 18.42257812 5.89453125 17.72265625 C4.01093087 16.08888768 2.14022972 14.44290785 0.28125 12.78125 C-3.35464887 14.37249045 -6.11941524 16.6206404 -9.15625 19.15625 C-12.65253052 22.06414395 -16.15883313 24.95140683 -19.71875 27.78125 C-19.06917842 31.81646738 -17.01387814 34.74604864 -14.84375 38.15625 C-9.52248802 46.54067385 -9.52248802 46.54067385 -7.71875 50.78125 C-8.04875 51.77125 -8.37875 52.76125 -8.71875 53.78125 C-10.78515625 54.51171875 -10.78515625 54.51171875 -13.28125 54.96875 C-14.10753906 55.12730469 -14.93382812 55.28585937 -15.78515625 55.44921875 C-16.42324219 55.55878906 -17.06132813 55.66835938 -17.71875 55.78125 C-18.07066406 55.04261719 -18.42257812 54.30398438 -18.78515625 53.54296875 C-21.93249543 47.07572087 -25.35325009 40.9737333 -29.30078125 34.9609375 C-31.83870446 31.05966711 -32.6242669 27.39190942 -31.71875 22.78125 C-28.44720803 17.98298844 -24.16733429 14.71589925 -19.65625 11.140625 C-17.76055307 9.61801736 -15.90211053 8.04724667 -14.09375 6.421875 C-9.68786227 2.53918644 -6.11302639 -0.60269274 0 0 Z " fill="#FAFBFB" transform="translate(845.71875,623.21875)"/>
<path d="M0 0 C19.8 0 39.6 0 60 0 C60 3.63 60 7.26 60 11 C44.16 11 28.32 11 12 11 C12 20.24 12 29.48 12 39 C25.86 39 39.72 39 54 39 C54 42.3 54 45.6 54 49 C40.14 49 26.28 49 12 49 C12 58.57 12 68.14 12 78 C28.17 78 44.34 78 61 78 C61 81.63 61 85.26 61 89 C40.87 89 20.74 89 0 89 C0 59.63 0 30.26 0 0 Z " fill="#738C90" transform="translate(1512,1534)"/>
<path d="M0 0 C19.8 0 39.6 0 60 0 C60 3.63 60 7.26 60 11 C44.16 11 28.32 11 12 11 C12 20.24 12 29.48 12 39 C25.86 39 39.72 39 54 39 C54 42.3 54 45.6 54 49 C40.14 49 26.28 49 12 49 C12 58.57 12 68.14 12 78 C28.17 78 44.34 78 61 78 C61 81.63 61 85.26 61 89 C40.87 89 20.74 89 0 89 C0 59.63 0 30.26 0 0 Z " fill="#738C90" transform="translate(1048,1534)"/>
<path d="M0 0 C19.8 0 39.6 0 60 0 C60 3.63 60 7.26 60 11 C44.16 11 28.32 11 12 11 C12 20.24 12 29.48 12 39 C25.86 39 39.72 39 54 39 C54 42.3 54 45.6 54 49 C40.14 49 26.28 49 12 49 C12 58.57 12 68.14 12 78 C28.17 78 44.34 78 61 78 C61 81.63 61 85.26 61 89 C40.87 89 20.74 89 0 89 C0 59.63 0 30.26 0 0 Z " fill="#738C90" transform="translate(584,1534)"/>
<path d="M0 0 C19.8 0 39.6 0 60 0 C60 3.63 60 7.26 60 11 C44.16 11 28.32 11 12 11 C12 20.24 12 29.48 12 39 C25.53 39 39.06 39 53 39 C53 42.3 53 45.6 53 49 C39.47 49 25.94 49 12 49 C12 58.57 12 68.14 12 78 C28.17 78 44.34 78 61 78 C61 81.63 61 85.26 61 89 C40.87 89 20.74 89 0 89 C0 59.63 0 30.26 0 0 Z " fill="#738C90" transform="translate(747,1534)"/>
<path d="M0 0 C19.47 0 38.94 0 59 0 C59 3.63 59 7.26 59 11 C43.49 11 27.98 11 12 11 C12 20.24 12 29.48 12 39 C25.53 39 39.06 39 53 39 C53 42.3 53 45.6 53 49 C39.47 49 25.94 49 12 49 C12 58.57 12 68.14 12 78 C28.17 78 44.34 78 61 78 C61 81.63 61 85.26 61 89 C40.87 89 20.74 89 0 89 C0 59.63 0 30.26 0 0 Z " fill="#738C90" transform="translate(1437,1534)"/>
<path d="M0 0 C8.56805549 6.74789863 14.95293546 17.2314084 17 28 C18.13756914 42.4814357 14.6354485 54.51857825 6.32421875 66.39453125 C-1.01146703 74.64107824 -13.45622947 80.46862586 -24.3828125 81.23828125 C-32.67677699 81.40277533 -39.44825493 80.70070202 -47 77 C-47.85207031 76.5875 -48.70414063 76.175 -49.58203125 75.75 C-61.56753233 69.2693604 -67.96243699 59.28442405 -72.10546875 46.62109375 C-74.63070857 36.39883473 -73.60813991 26.40348551 -69 17 C-68.5875 16.14792969 -68.175 15.29585937 -67.75 14.41796875 C-61.24738285 2.39182169 -50.85346654 -4.41135381 -38.0625 -8.640625 C-24.13758104 -11.06693664 -11.64410824 -7.6812708 0 0 Z M-55 13 C-61.33527679 21.65444061 -64.22365479 30.26591428 -63 41 C-60.75393705 51.28885125 -56.23982044 59.2709539 -47.5625 65.375 C-39.13201366 70.47579846 -31.95843121 72.18552752 -22 71 C-11.21276434 68.24815417 -3.6190247 63.43445229 2.375 54.0625 C7.23245144 45.28476845 8.84972615 35.67222648 6.125 25.84375 C1.9281978 14.90997584 -4.53889533 7.99686468 -15.05078125 3.03125 C-29.24456072 -2.57360624 -45.04905774 1.53864686 -55 13 Z " fill="#FAFAFB" transform="translate(932,689)"/>
<path d="M0 0 C3.25988872 3.13136264 5.89129303 6.16018727 8.0625 10.125 C8.0625 10.785 8.0625 11.445 8.0625 12.125 C6.41796875 13.4140625 6.41796875 13.4140625 4.25 14.75 C3.54230469 15.19601562 2.83460938 15.64203125 2.10546875 16.1015625 C0.0625 17.125 0.0625 17.125 -2.9375 17.125 C-4.2815093 15.13215862 -5.61291292 13.13080329 -6.9375 11.125 C-14.13019834 4.24502768 -20.64397888 3.6666394 -30.296875 3.80859375 C-37.64416871 4.4471461 -42.16539594 7.57904123 -46.9375 13.125 C-47.36933594 13.61613281 -47.80117188 14.10726563 -48.24609375 14.61328125 C-54.48505572 22.37032893 -55.96357704 32.42646363 -54.9375 42.125 C-52.903966 52.74982105 -47.80164175 60.88543653 -38.9375 67.125 C-32.52713362 70.76227026 -25.72860101 71.00694397 -18.58203125 69.69140625 C-12.56848135 68.02500086 -8.0889589 64.75432468 -3.9375 60.125 C-2.72843028 58.00642185 -2.72843028 58.00642185 -1.9375 56.125 C2.4515815 56.63535831 5.39958062 57.64714277 9.0625 60.125 C8.23176747 66.04268731 5.35541127 69.14430046 1.0625 73.125 C-9.67737047 81.13500373 -20.67485678 83.36265918 -33.9375 82.125 C-45.14370141 79.74492183 -54.42812544 72.42642549 -60.9375 63.125 C-67.75298999 50.59679162 -69.98625774 37.62488341 -67.25 23.6015625 C-63.60329507 11.78016069 -56.35773972 2.09625426 -45.6875 -4.1875 C-31.26953669 -11.53398267 -12.54895019 -10.70652683 0 0 Z " fill="#728B8F" transform="translate(323.9375,1541.875)"/>
<path d="M0 0 C0.47620413 22.8048867 -4.41760067 41.17064761 -20.3125 58.4453125 C-24.10684171 62.05214314 -28.2229734 65.20105665 -32.47875977 68.24609375 C-34.47269669 69.67389494 -34.47269669 69.67389494 -37 72 C-37 76.13152781 -36.61316233 77.15059063 -34.59375 80.546875 C-34.09746094 81.39121094 -33.60117187 82.23554687 -33.08984375 83.10546875 C-32.56519531 83.97816406 -32.04054688 84.85085938 -31.5 85.75 C-30.97535156 86.63816406 -30.45070313 87.52632812 -29.91015625 88.44140625 C-28.61445244 90.6323236 -27.31088769 92.81814534 -26 95 C-21.7759948 94.44176143 -18.41209512 93.42693814 -14.5625 91.625 C3.33608326 83.99210602 23.7849839 83.69614125 41.875 90.8125 C47.09949118 92.95364152 51.64550095 95.388952 56 99 C54.72431911 101.84574968 53.58503711 104.18089981 51 106 C47.27127414 105.54976269 44.38759794 104.31572777 41.0625 102.625 C24.81722923 95.1221641 7.73217979 95.18164454 -9 101 C-11.48446047 102.03211623 -13.92357819 103.13882921 -16.375 104.25 C-26.35434406 108.65397689 -26.35434406 108.65397689 -32 107 C-37.43533827 101.53450729 -41.13582289 95.16466852 -44.9375 88.5 C-45.53884766 87.49324219 -46.14019531 86.48648438 -46.75976562 85.44921875 C-50.96367336 78.10080729 -50.96367336 78.10080729 -51.12890625 73.09375 C-48.83523028 66.80796672 -44.34233871 63.46884239 -39.1875 59.5625 C-37.92671291 58.58120491 -36.66629137 57.59943995 -35.40625 56.6171875 C-33.56929135 55.19672542 -31.72756862 53.80357303 -29.84375 52.4453125 C-20.59672652 45.42280882 -13.21663083 31.85789612 -11.65380859 20.47949219 C-10.93818531 14.3325532 -10.42296737 8.17343225 -10 2 C-8.7090864 1.66376204 -7.41723903 1.33110751 -6.125 1 C-5.40570312 0.814375 -4.68640625 0.62875 -3.9453125 0.4375 C-2 0 -2 0 0 0 Z " fill="#FAFAFA" transform="translate(843,695)"/>
<path d="M0 0 C19.47 0 38.94 0 59 0 C59 3.63 59 7.26 59 11 C43.49 11 27.98 11 12 11 C12 20.24 12 29.48 12 39 C25.2 39 38.4 39 52 39 C52 42.63 52 46.26 52 50 C38.8 50 25.6 50 12 50 C12 62.87 12 75.74 12 89 C8.04 89 4.08 89 0 89 C0 59.63 0 30.26 0 0 Z " fill="#738C90" transform="translate(947,1534)"/>
<path d="M0 0 C4.29 0 8.58 0 13 0 C13 25.74 13 51.48 13 78 C29.17 78 45.34 78 62 78 C62 81.63 62 85.26 62 89 C41.54 89 21.08 89 0 89 C0 59.63 0 30.26 0 0 Z " fill="#728C8F" transform="translate(511,1534)"/>
<path d="M0 0 C3.96 0 7.92 0 12 0 C12 25.74 12 51.48 12 78 C28.17 78 44.34 78 61 78 C61 81.63 61 85.26 61 89 C40.87 89 20.74 89 0 89 C0 59.63 0 30.26 0 0 Z " fill="#738C90" transform="translate(439,1534)"/>
<path d="M0 0 C2.97 0.99 5.94 1.98 9 3 C6.68096373 12.27614506 -3.26825953 19.84550636 -11 25 C-15.21820525 27.34827921 -19.5094171 29.23509649 -24 31 C-24.96421875 31.41507813 -25.9284375 31.83015625 -26.921875 32.2578125 C-39.64741396 36.87647258 -53.72293803 35.24361582 -67 35 C-68.32 43.91 -69.64 52.82 -71 62 C-67.37 62.99 -63.74 63.98 -60 65 C-57.79241051 65.80081556 -55.59894219 66.64439074 -53.4375 67.5625 C-51.95056641 68.18318359 -51.95056641 68.18318359 -50.43359375 68.81640625 C-48 70 -48 70 -46 72 C-47.65 74.31 -49.3 76.62 -51 79 C-56.17270198 78.04708872 -60.97853412 76.41031626 -65.9375 74.6875 C-67.25911133 74.24374023 -67.25911133 74.24374023 -68.60742188 73.79101562 C-80.70174799 69.59650402 -80.70174799 69.59650402 -83 65 C-83.88246765 57.28925811 -82.65406969 49.70358825 -81.3125 42.125 C-81.16401611 41.22160889 -81.01553223 40.31821777 -80.86254883 39.38745117 C-79.7540066 33.5487674 -78.26690533 30.17955136 -74 26 C-71.05260959 24.52630479 -68.05634684 24.84365189 -64.82421875 24.82421875 C-63.3404813 24.80097626 -61.85675737 24.77685728 -60.37304688 24.75195312 C-58.04768415 24.71720269 -55.7228045 24.68770699 -53.3972168 24.67407227 C-34.27297602 24.54016344 -19.50569175 19.61141585 -5.3125 6.3671875 C-3.32727225 4.33501179 -1.62672313 2.32236131 0 0 Z " fill="#FAFBFB" transform="translate(867,659)"/>
<path d="M0 0 C1.8125 1.5 1.8125 1.5 3.578125 3.8125 C10.07259621 11.6240318 19.33730597 17.07492986 28.8125 20.5 C29.46347656 20.75894043 30.11445312 21.01788086 30.78515625 21.28466797 C39.54053591 24.40183413 48.64230652 23.92010228 57.81005859 23.86035156 C59.99382993 23.85175592 62.17576582 23.87347174 64.359375 23.8984375 C66.29055176 23.89336182 66.29055176 23.89336182 68.26074219 23.88818359 C72.93102159 24.69267357 74.50374996 26.1609625 77.8125 29.5 C81.85429889 38.40187608 85.08153771 54.8864455 82.8125 64.5 C78.80306533 70.07243463 73.05486149 71.62563614 66.8125 73.75 C65.82765625 74.100625 64.8428125 74.45125 63.828125 74.8125 C59.50366977 76.33190319 55.32984244 77.68032093 50.8125 78.5 C46.8125 72.875 46.8125 72.875 46.8125 69.5 C54.68807244 65.96716343 62.39512771 63.38864366 70.8125 61.5 C70.69132813 60.7886792 70.57015625 60.0773584 70.4453125 59.34448242 C69.89850026 56.12591403 69.35545692 52.90672091 68.8125 49.6875 C68.62171875 48.56794922 68.4309375 47.44839844 68.234375 46.29492188 C68.05390625 45.22177734 67.8734375 44.14863281 67.6875 43.04296875 C67.51992188 42.05321045 67.35234375 41.06345215 67.1796875 40.04370117 C66.8125 37.5 66.8125 37.5 66.8125 34.5 C65.66587891 34.53927612 65.66587891 34.53927612 64.49609375 34.5793457 C36.1120733 35.42258337 36.1120733 35.42258337 22.8125 29.5 C22.20809082 29.24299316 21.60368164 28.98598633 20.98095703 28.72119141 C9.45857836 23.7726138 -2.12712778 16.15080041 -9.1875 5.5 C-9.1875 4.51 -9.1875 3.52 -9.1875 2.5 C-2.87377451 -0.65686275 -2.87377451 -0.65686275 0 0 Z " fill="#F9FAFA" transform="translate(941.1875,659.5)"/>
<path d="M0 0 C3.96 0 7.92 0 12 0 C12 29.37 12 58.74 12 89 C8.04 89 4.08 89 0 89 C0 59.63 0 30.26 0 0 Z " fill="#738C90" transform="translate(1669,1534)"/>
<path d="M0 0 C3.96 0 7.92 0 12 0 C12 29.37 12 58.74 12 89 C8.04 89 4.08 89 0 89 C0 59.63 0 30.26 0 0 Z " fill="#738C90" transform="translate(1308,1534)"/>
<path d="M0 0 C1.64574566 -0.02688151 3.29161413 -0.04634123 4.9375 -0.0625 C6.31228516 -0.07990234 6.31228516 -0.07990234 7.71484375 -0.09765625 C10 0 10 0 11 1 C11.35242628 3.34852138 11.65638419 5.70437981 11.9375 8.0625 C12.45257826 12.25058854 12.97280527 16.36804629 14.125 20.4375 C15.43462031 25.76952553 16.20371392 29.92693714 13.3125 34.90625 C9.03353827 39.74505458 2.47888627 41.3037955 -3.4375 43.375 C-4.65244141 43.82488281 -5.86738281 44.27476562 -7.11914062 44.73828125 C-17.48288229 48.47490701 -17.48288229 48.47490701 -23 48 C-28.95814397 44.30317233 -31.57383799 39.0390744 -34.75 32.9375 C-35.23082031 32.03966797 -35.71164062 31.14183594 -36.20703125 30.21679688 C-38.18967254 26.50279613 -40.12772829 22.7708756 -42 19 C-40.02 17.02 -38.04 15.04 -36 13 C-32.54979622 14.15006793 -32.32051617 14.65540618 -30.58984375 17.67578125 C-30.15736328 18.42150391 -29.72488281 19.16722656 -29.27929688 19.93554688 C-28.83650391 20.71994141 -28.39371094 21.50433594 -27.9375 22.3125 C-27.49083984 23.08529297 -27.04417969 23.85808594 -26.58398438 24.65429688 C-24.62447035 28.06074651 -22.73354306 31.47221767 -21 35 C-12.86184696 32.69356492 -4.94317882 29.89571216 3 27 C2.45490309 20.51621573 1.57315045 14.16269844 0.40234375 7.76171875 C0.01858352 5.12755874 -0.07259691 2.65704706 0 0 Z " fill="#F9FAFA" transform="translate(949,796)"/>
<path d="M0 0 C1.00371643 -0.00218285 1.00371643 -0.00218285 2.02770996 -0.00440979 C3.43632379 -0.00275673 4.84495679 0.00873823 6.25341797 0.02954102 C8.4002005 0.05851211 10.54451189 0.05013724 12.69140625 0.03710938 C24.2765649 0.08971852 24.2765649 0.08971852 28.90625 3.49609375 C35.85749092 11.17822577 34.89584252 25.62849726 35.90625 35.49609375 C30.28125 38.49609375 30.28125 38.49609375 26.90625 38.49609375 C23.61727558 30.03873095 22.90625 21.49908726 22.90625 12.49609375 C13.66625 12.49609375 4.42625 12.49609375 -5.09375 12.49609375 C-5.09375 15.13609375 -5.09375 17.77609375 -5.09375 20.49609375 C-5.33173448 22.73162878 -5.62045917 24.96256989 -5.96875 27.18359375 C-6.13117187 28.25996094 -6.29359375 29.33632813 -6.4609375 30.4453125 C-7.05842582 33.32579631 -7.90819207 35.81115374 -9.09375 38.49609375 C-12.82862777 37.99811005 -14.90612635 37.62117619 -18.09375 35.49609375 C-17.79535341 32.15876344 -17.45170888 28.827552 -17.09375 25.49609375 C-16.9596875 24.24441406 -16.825625 22.99273438 -16.6875 21.703125 C-16.5328125 20.39730469 -16.378125 19.09148438 -16.21875 17.74609375 C-16.07695313 16.51375 -15.93515625 15.28140625 -15.7890625 14.01171875 C-14.83425015 9.18401585 -13.4479907 5.83674624 -9.92822266 2.35229492 C-6.3773406 0.02694123 -4.22114396 -0.00630431 0 0 Z " fill="#FAFBFB" transform="translate(895.09375,605.50390625)"/>
<path d="M0 0 C2 2 2 2 3.015625 4.828125 C5.67343914 12.26486094 5.67343914 12.26486094 11.5078125 17.19140625 C14.92299379 18.73110846 18.4141343 19.92424029 22 21 C19.24982823 23.19134691 16.59577342 24.78177782 13.375 26.1875 C12.59898438 26.53167969 11.82296875 26.87585938 11.0234375 27.23046875 C9 28 9 28 7 28 C6.7525 28.804375 6.505 29.60875 6.25 30.4375 C4.73921353 34.74324143 2.89811144 38.85364007 1 43 C0.34 43 -0.32 43 -1 43 C-1.27070312 42.07058594 -1.54140625 41.14117188 -1.8203125 40.18359375 C-4.15899064 33.46864663 -5.92076308 28.91232599 -12.42919922 25.51196289 C-15.25416917 24.22424447 -18.08217478 23.06320755 -21 22 C-18.16159841 19.6836033 -15.60256918 18.4513445 -12.1875 17.1875 C-5.037298 13.79777461 -2.84030076 6.9502724 0 0 Z " fill="#F8F9FA" transform="translate(1287,563)"/>
<path d="M0 0 C9.06183962 6.60759139 15.5460416 17.35029492 19 28 C19.25 31.0625 19.25 31.0625 19 33 C15.78548731 34.60725635 12.56387464 34.05748185 9 34 C8.8040625 33.34515625 8.608125 32.6903125 8.40625 32.015625 C5.61727698 23.50444872 1.39306501 15.39306501 -5 9 C-4.73441476 5.14901402 -2.43956652 2.83304499 0 0 Z " fill="#F9FAFA" transform="translate(837,743)"/>
<path d="M0 0 C4.62816456 4.2721519 4.62816456 4.2721519 5.91796875 6.796875 C6.04727857 10.26976733 3.90817209 12.37527407 1.875 15 C-2.52387219 20.96238345 -5.49093561 27.00235812 -8 34 C-11.3 34 -14.6 34 -18 34 C-16.23610613 20.8687901 -9.33954189 9.33954189 0 0 Z " fill="#FAFBFB" transform="translate(970,742)"/>
<path d="M0 0 C2.38971946 1.95522501 2.99970084 2.99887241 3.8125 6.0625 C4.72074464 9.29431527 4.72074464 9.29431527 8 10.3125 C8.99 10.539375 9.98 10.76625 11 11 C11.66 11.33 12.32 11.66 13 12 C13 12.66 13 13.32 13 14 C12.46890625 14.1959375 11.9378125 14.391875 11.390625 14.59375 C6.04092873 16.85858492 3.85858492 19.04092873 1.59375 24.390625 C1.3978125 24.92171875 1.201875 25.4528125 1 26 C-1 24 -1 24 -1.5625 20.5625 C-2.58408313 16.92698505 -2.58408313 16.92698505 -5.12890625 15.875 C-7.40721253 15.1333917 -9.65871454 14.50583328 -12 14 C-12 13.34 -12 12.68 -12 12 C-9.03 11.01 -6.06 10.02 -3 9 C-2.87625 8.2575 -2.7525 7.515 -2.625 6.75 C-2.04513299 4.19858515 -1.26291261 2.2732427 0 0 Z " fill="#F5F5F7" transform="translate(1335,580)"/>
<path d="M0 0 C0.66 0 1.32 0 2 0 C2.391875 0.94875 2.78375 1.8975 3.1875 2.875 C5.19793856 6.34127338 6.22699642 6.9802693 10 8 C10 8.66 10 9.32 10 10 C9.05125 10.391875 8.1025 10.78375 7.125 11.1875 C3.65872662 13.19793856 3.0197307 14.22699642 2 18 C1.34 18 0.68 18 0 18 C-0.20625 17.236875 -0.4125 16.47375 -0.625 15.6875 C-2.42070704 12.17770897 -4.43136312 11.47400219 -8 10 C-8 9.34 -8 8.68 -8 8 C-6.576875 7.4121875 -6.576875 7.4121875 -5.125 6.8125 C-1.65872662 4.80206144 -1.0197307 3.77300358 0 0 Z " fill="#EFF0F3" transform="translate(1276,613)"/>
<path d="M0 0 C0.61875 0.804375 1.2375 1.60875 1.875 2.4375 C3.74164041 5.03874519 3.74164041 5.03874519 6 6 C6 8 6 8 4.125 10 C3.42375 10.66 2.7225 11.32 2 12 C1.34 12.66 0.68 13.32 0 14 C-0.433125 13.195625 -0.86625 12.39125 -1.3125 11.5625 C-2.80474002 8.72153646 -2.80474002 8.72153646 -6 8 C-6 7.34 -6 6.68 -6 6 C-5.38125 5.7525 -4.7625 5.505 -4.125 5.25 C-1.64931313 3.79371361 -1.04874998 2.62187494 0 0 Z " fill="#EBECF1" transform="translate(1313,548)"/>
</svg>
